<svg class="lines" width="965" height="1080" viewBox="0 0 965 1080" fill="none" xmlns="http://www.w3.org/2000/svg">
<path d="M1788.13 1455.71C1786.8 1454.24 1784.74 1453.85 1783.01 1454.58L1666.58 1217.26C1666.87 1217.1 1667.14 1216.91 1667.4 1216.68C1669.25 1215.01 1669.4 1212.15 1667.73 1210.29C1666.06 1208.44 1663.2 1208.29 1661.34 1209.96C1661.27 1210.02 1661.21 1210.08 1661.15 1210.15L1566.07 1126.4C1567.41 1124.7 1567.37 1122.24 1565.88 1120.58C1565.18 1119.8 1564.27 1119.33 1563.32 1119.16L1570.75 1057.72C1571.93 1057.79 1573.13 1057.42 1574.07 1056.57C1575.92 1054.9 1576.07 1052.04 1574.4 1050.18C1573 1048.63 1570.77 1048.28 1568.99 1049.19L1568.55 1049.44C1568.36 1049.56 1568.18 1049.7 1568.01 1049.85C1567.32 1050.47 1566.87 1051.26 1566.66 1052.09L1532.88 1045.5L1469.09 879C1469.16 878.97 1469.23 878.93 1469.3 878.9L1469.73 878.65C1469.92 878.53 1470.1 878.39 1470.27 878.24C1472.12 876.57 1472.27 873.71 1470.6 871.85C1468.93 870 1466.07 869.85 1464.21 871.52C1463.7 871.98 1463.33 872.52 1463.08 873.11L1342.3 829.13L1316.76 744.47C1316.93 744.42 1317.09 744.35 1317.26 744.29C1319.24 743.43 1320.58 741.75 1321.08 739.83L1321.2 739.32C1321.27 738.93 1321.31 738.53 1321.31 738.12L1321.28 737.61C1321.22 736.87 1321.06 736.13 1320.74 735.4C1320.49 734.87 1320.18 734.37 1319.83 733.91L1319.49 733.51C1318.6 732.57 1317.46 731.9 1316.23 731.6L1315.72 731.47C1314.45 731.26 1313.11 731.38 1311.85 731.95C1311.44 732.12 1311.07 732.32 1310.73 732.56L1310.32 732.88C1309.53 733.52 1308.9 734.33 1308.47 735.22L1224.74 700.63C1225.27 699.12 1224.97 697.38 1223.83 696.11C1222.56 694.7 1220.59 694.28 1218.91 694.9L1180.57 606.38C1182.25 605.51 1183.17 603.64 1182.92 601.81L1182.81 601.3C1182.75 601.06 1182.69 600.84 1182.58 600.6C1181.86 598.96 1180.26 597.96 1178.56 597.92H1178.04C1177.57 597.98 1177.11 598.09 1176.66 598.28C1176.22 598.47 1175.84 598.71 1175.51 599L1175.14 599.36C1174.98 599.54 1174.83 599.72 1174.7 599.93L1044.64 524.5L1000.83 423.33C1000.95 423.29 1001.07 423.24 1001.19 423.19C1001.87 422.91 1002.47 422.51 1003 422.02L1003.37 421.66C1005.19 419.75 1005.8 416.89 1004.67 414.31C1003.17 410.9 999.19 409.34 995.78 410.85C994.08 411.58 992.85 412.95 992.21 414.54L919.51 388.88L888.1 230.27C888.32 230.21 888.55 230.15 888.78 230.04C891.05 229.06 892.09 226.4 891.1 224.12C890.1 221.85 887.44 220.81 885.17 221.82C884.33 222.18 883.64 222.79 883.18 223.51L695.24 118.77L620.86 -51.1C622.97 -52.17 623.91 -54.71 622.94 -56.9C621.95 -59.18 619.3 -60.22 617.01 -59.2C615.51 -58.55 614.54 -57.16 614.36 -55.63L506.09 -62.39C506.12 -63.35 505.94 -64.31 505.53 -65.24C504.04 -68.66 500.06 -70.23 496.65 -68.72C495.74 -68.31 494.98 -67.75 494.36 -67.07L239.76 -279.82C240.69 -281.09 240.94 -282.77 240.27 -284.31C239.28 -286.59 236.62 -287.62 234.34 -286.61C232.07 -285.64 231.03 -282.98 232.03 -280.7C232.48 -279.69 233.26 -278.92 234.18 -278.46L170.75 -127.19L9.61026 -150.07C9.66026 -150.79 9.54015 -151.52 9.24015 -152.25C8.37015 -154.23 6.24011 -155.27 4.20011 -154.84L3.71012 -154.71C3.58012 -154.67 3.44021 -154.61 3.30021 -154.55C1.04021 -153.57 0.00014782 -150.92 0.990148 -148.64C1.99015 -146.35 4.64008 -145.32 6.92008 -146.32C7.33008 -146.5 7.69016 -146.73 8.00016 -146.99L126.43 -21.48L38.1901 188.97C36.6001 188.38 34.8003 188.36 33.1203 189.1C29.7103 190.59 28.1501 194.57 29.6501 197.99C31.1501 201.4 35.1302 202.95 38.5402 201.45C40.6202 200.54 41.9901 198.73 42.4201 196.67L363.11 251.61L349.64 703.93C349.08 703.97 348.51 704.08 347.96 704.32C345.68 705.33 344.65 707.97 345.65 710.24C346.65 712.51 349.3 713.56 351.58 712.56C352.26 712.26 352.83 711.82 353.26 711.28L551.08 853.62L523.58 910.37C521.91 909.64 519.97 909.58 518.17 910.37C514.76 911.86 513.2 915.84 514.7 919.26C516.19 922.68 520.17 924.22 523.58 922.73C525.32 921.98 526.57 920.57 527.19 918.93L680.33 969.85L693.7 1094.25C693.23 1094.34 692.77 1094.48 692.32 1094.68C688.91 1096.17 687.37 1100.13 688.85 1103.57C690.35 1106.98 694.31 1108.54 697.75 1107.04C701.15 1105.56 702.71 1101.58 701.22 1098.14C701.04 1097.74 700.82 1097.37 700.58 1097.02L766.87 1046.42L914.85 1360.83C912.81 1361.94 911.93 1364.41 912.87 1366.58C913.86 1368.85 916.52 1369.9 918.81 1368.9C921.08 1367.9 922.11 1365.25 921.11 1362.97C920.69 1362 919.98 1361.28 919.12 1360.82L1040.78 1099.77L1142.92 1264.12C1142.77 1264.23 1142.62 1264.34 1142.49 1264.46C1140.64 1266.13 1140.49 1268.99 1142.16 1270.85C1143.83 1272.7 1146.69 1272.85 1148.55 1271.18C1149.56 1270.27 1150.05 1269.01 1150.04 1267.76L1307.4 1256.72L1387.87 1374.18C1387.78 1374.25 1387.68 1374.32 1387.6 1374.4C1385.75 1376.07 1385.6 1378.93 1387.27 1380.79C1388.94 1382.64 1391.8 1382.79 1393.66 1381.12C1395.51 1379.45 1395.66 1376.59 1393.99 1374.73C1393.44 1374.12 1392.75 1373.69 1392.02 1373.46L1415.16 1284.87L1780.6 1457.02C1779.97 1458.57 1780.23 1460.42 1781.43 1461.74C1783.1 1463.59 1785.96 1463.74 1787.82 1462.07C1789.67 1460.4 1789.82 1457.54 1788.15 1455.68L1788.13 1455.71ZM1666.13 1217.48L1782.56 1454.8C1782.45 1454.86 1782.35 1454.93 1782.24 1455L1681.43 1322.43C1681.43 1322.43 1681.5 1322.38 1681.53 1322.35C1683.38 1320.68 1683.53 1317.82 1681.86 1315.96C1680.88 1314.88 1679.5 1314.38 1678.15 1314.49L1665.22 1217.76C1665.53 1217.7 1665.84 1217.61 1666.13 1217.48ZM1674.02 1318.36C1673.84 1319.64 1674.21 1320.99 1675.14 1322.02C1676.67 1323.71 1679.19 1323.98 1681.03 1322.73L1781.84 1455.3C1781.84 1455.3 1781.77 1455.35 1781.74 1455.38C1781.67 1455.45 1781.6 1455.52 1781.53 1455.59L1608.48 1305.33L1674.02 1318.35V1318.36ZM1607.71 1304.67L1487.08 1199.93C1487.18 1199.81 1487.27 1199.69 1487.35 1199.56L1674.53 1316.81C1674.35 1317.15 1674.2 1317.5 1674.11 1317.86L1607.7 1304.67H1607.71ZM1659.85 1213.14C1659.81 1214.28 1660.19 1215.43 1661.01 1216.35C1661.99 1217.43 1663.37 1217.93 1664.71 1217.82L1677.64 1314.55C1676.85 1314.7 1676.1 1315.05 1675.46 1315.63C1675.21 1315.86 1674.99 1316.11 1674.8 1316.38L1487.62 1199.13C1488.02 1198.43 1488.27 1197.67 1488.38 1196.9L1659.85 1213.14ZM1559.34 1126.81C1561.03 1128.49 1563.76 1128.57 1565.55 1126.96C1565.62 1126.9 1565.68 1126.84 1565.74 1126.77L1660.82 1210.52C1660.77 1210.58 1660.73 1210.64 1660.68 1210.7L1546.08 1138.78L1559.34 1126.81ZM1545.7 1139.13L1660.42 1211.13C1660.16 1211.6 1659.98 1212.11 1659.91 1212.64L1488.45 1196.4C1488.53 1194.89 1488.06 1193.36 1487.02 1192.12L1545.71 1139.14L1545.7 1139.13ZM1486.4 1200.66C1486.53 1200.55 1486.64 1200.43 1486.75 1200.31L1606.71 1304.47L1419.72 1267.31L1432.66 1217.76L1476.67 1198.74C1476.92 1199.26 1477.25 1199.76 1477.65 1200.2C1479.94 1202.74 1483.86 1202.94 1486.39 1200.65L1486.4 1200.66ZM1198.6 1101L1077.94 1020.04L1116.16 938.06C1117.13 938.33 1118.2 938.29 1119.2 937.86L1119.45 937.79V937.74C1119.54 937.68 1119.66 937.62 1119.77 937.55L1200.79 1099.08C1199.9 1099.57 1199.16 1100.23 1198.6 1101.01V1101ZM935.61 925.15L1026.19 985.92L1008.55 1046.97L933.87 926.8C934.56 926.34 935.15 925.78 935.62 925.15H935.61ZM735.05 985.4L678.17 945.03L662.38 798.11C662.71 798.08 663.05 798.01 663.38 797.9L737.64 983.4C736.58 983.87 735.72 984.55 735.05 985.41V985.4ZM677.62 944.65L672.18 940.79L574.71 870.01L658.75 796.79C659.4 797.48 660.26 797.92 661.17 798.07L661.68 798.14C661.75 798.14 661.82 798.14 661.89 798.14L677.63 944.65H677.62ZM663.86 797.7C666.06 796.67 667.05 794.07 666.07 791.83C665.32 790.12 663.63 789.1 661.87 789.14L651.77 654.71C651.99 654.68 652.22 654.65 652.45 654.6L738.42 983.09C738.31 983.13 738.22 983.17 738.1 983.21L663.86 797.7ZM657.69 792.21L590.33 773.83L648.3 654.19C649.23 654.58 650.23 654.78 651.25 654.74L661.35 789.18C660.95 789.23 660.54 789.35 660.14 789.51C658.93 790.04 658.07 791.05 657.69 792.2V792.21ZM367.72 232.56L407.64 256.74C407.31 257.33 407.08 257.96 406.94 258.62L380.91 254.16L366.77 233.57C367.14 233.28 367.47 232.94 367.72 232.56ZM257.03 -31.75L152.09 -81.33L171.08 -126.62L253.63 -114.9L262.06 -35.33C261.47 -35.23 260.88 -35.09 260.32 -34.84C259.9 -34.65 259.51 -34.42 259.16 -34.19L258.74 -33.86C258.03 -33.27 257.46 -32.56 257.03 -31.76V-31.75ZM254.16 -114.81L337.24 -103.04C337.3 -102.72 337.39 -102.42 337.52 -102.13C337.71 -101.72 337.94 -101.35 338.22 -101.02L267.71 -33.5C266.34 -34.82 264.48 -35.51 262.57 -35.37L254.16 -114.82V-114.81ZM338.58 -100.64C339.85 -99.45 341.76 -99.07 343.45 -99.81C344.02 -100.06 344.5 -100.4 344.89 -100.82L462.29 -0.649994C461.86 -0.0799866 461.58 0.579987 461.46 1.28L269.7 -27.62C269.89 -28.84 269.74 -30.13 269.21 -31.34C268.92 -32 268.54 -32.59 268.09 -33.12L338.59 -100.64H338.58ZM576.38 53.06L557.19 44.15L564.97 31.69L578.3 50.77C577.49 51.38 576.84 52.16 576.38 53.06ZM813.04 356.82C813.88 356.45 814.6 355.94 815.19 355.32L835.85 373.82L810.42 447.79C810.12 447.7 809.83 447.65 809.52 447.63L810.53 357.38C811.38 357.36 812.23 357.18 813.04 356.83V356.82ZM816.6 353.13L840.12 361.41L836.03 373.3L815.53 354.94C815.98 354.39 816.35 353.78 816.6 353.13ZM928.23 455.89L904.56 434.69L927.21 430.49L931.81 453.7C931.44 453.78 931.05 453.91 930.67 454.07C929.7 454.49 928.88 455.12 928.23 455.89ZM927.93 456.29L927.71 456.61C927.14 457.5 926.8 458.5 926.68 459.55L813.7 452.15C813.7 451.96 813.68 451.76 813.67 451.54L903.95 434.8L927.93 456.28V456.29ZM1211.08 764.88L1288.82 809.38C1288.59 809.85 1288.44 810.35 1288.37 810.87L1088.76 798.16C1088.84 797.44 1088.83 796.71 1088.71 795.97L1203.01 763.91C1203.2 764.46 1203.51 764.99 1203.92 765.45C1205.59 767.3 1208.45 767.45 1210.31 765.78C1210.61 765.51 1210.86 765.21 1211.07 764.88H1211.08ZM1469.76 1091.48L1545.25 1138.86L1486.67 1191.74C1485.3 1190.34 1483.41 1189.72 1481.58 1189.92L1466.99 1093.29C1467.75 1093.13 1468.48 1092.78 1469.1 1092.22C1469.35 1091.99 1469.57 1091.74 1469.76 1091.48ZM1476.48 1198.29L1432.83 1217.15L1465.18 1093.29C1465.61 1093.38 1466.06 1093.4 1466.5 1093.36L1481.09 1189.99C1480.02 1190.2 1478.98 1190.68 1478.11 1191.47C1476.15 1193.24 1475.59 1195.96 1476.49 1198.29H1476.48ZM1470.4 1090.16C1470.83 1088.7 1470.52 1087.05 1469.43 1085.84C1468.6 1084.93 1467.49 1084.43 1466.35 1084.36L1466.47 1062.82L1558.58 1121.4C1558.5 1121.54 1558.43 1121.69 1558.36 1121.84L1470.4 1090.16ZM1465.85 1084.35C1464.88 1084.4 1463.91 1084.76 1463.12 1085.45L1404.05 1024.33C1404.3 1024.09 1404.53 1023.83 1404.74 1023.56L1465.97 1062.5L1465.85 1084.36V1084.35ZM1405.03 1023.14C1405.42 1022.55 1405.71 1021.9 1405.9 1021.23L1466.13 1032.99L1465.97 1061.9L1405.03 1023.14ZM1402.12 1025.61C1402.69 1025.36 1403.21 1025.04 1403.67 1024.66L1462.76 1085.8C1462.14 1086.46 1461.76 1087.27 1461.62 1088.12L1386.74 1079.79L1398.26 1026.07C1399.52 1026.3 1400.87 1026.15 1402.13 1025.61H1402.12ZM1386.22 1079.73L1284.69 1068.44C1284.72 1067.86 1284.65 1067.27 1284.46 1066.71L1393.31 1022.25C1394.19 1024.16 1395.85 1025.47 1397.75 1025.96L1386.22 1079.73ZM1284.27 1066.24C1284.08 1065.85 1283.84 1065.48 1283.54 1065.14C1282.5 1063.99 1281.01 1063.5 1279.59 1063.69L1263.8 978.26L1392.9 1017.69C1392.56 1019 1392.61 1020.43 1393.12 1021.78L1284.27 1066.23V1066.24ZM1263.68 977.69L1245.42 878.92C1246.13 878.75 1246.8 878.4 1247.38 877.88C1247.41 877.85 1247.44 877.82 1247.47 877.79L1394.07 1015.29C1394.07 1015.29 1394.04 1015.32 1394.03 1015.34L1393.74 1015.77C1393.44 1016.23 1393.22 1016.7 1393.04 1017.2L1263.68 977.69ZM1087.26 801.94L1087.57 801.52C1087.57 801.52 1087.63 801.42 1087.66 801.37L1218.79 862.83L1121.04 931.08C1120.52 930.36 1119.8 929.84 1119.01 929.52L1118.5 929.37C1118.05 929.26 1117.59 929.22 1117.14 929.24L1083.27 804.75C1083.55 804.69 1083.83 804.57 1084.11 804.44C1085.41 803.88 1086.46 803.01 1087.25 801.94H1087.26ZM1219.31 863.08L1240.16 872.85C1239.73 873.92 1239.72 875.13 1240.16 876.22L1121.44 931.76C1121.4 931.68 1121.36 931.59 1121.31 931.51L1219.31 863.08ZM1116.61 929.31C1116.27 929.39 1115.93 929.46 1115.6 929.62C1114.2 930.25 1113.27 931.48 1112.99 932.89L1043.35 928.33L1079.02 804.88C1080.22 805.19 1081.51 805.21 1082.77 804.91L1116.61 929.31ZM1112.93 933.4C1112.87 934.11 1112.98 934.84 1113.28 935.54C1113.76 936.63 1114.64 937.45 1115.68 937.87L1077.51 1019.74L1026.79 985.7L1043.21 928.82L1112.93 933.39V933.4ZM1121.63 932.22L1240.37 876.67C1240.54 876.98 1240.74 877.28 1240.99 877.56C1241.63 878.27 1242.45 878.73 1243.31 878.93L1227.84 966.75L1121.84 934.37C1121.93 933.65 1121.87 932.92 1121.62 932.22H1121.63ZM1243.82 879.02C1244.19 879.06 1244.56 879.06 1244.93 879.02L1263.14 977.53L1228.34 966.9L1243.82 879.02ZM1396.88 1013.17L1396.4 1013.39C1396.33 1013.42 1396.27 1013.47 1396.21 1013.5L1325.54 874.92L1355.57 874.97L1397.23 1013.04C1397.1 1013.08 1397 1013.13 1396.88 1013.17ZM1395.77 1013.75C1395.25 1014.08 1394.8 1014.48 1394.4 1014.92L1247.82 877.43C1248.46 876.67 1248.82 875.74 1248.87 874.79L1324.97 874.92L1395.77 1013.75ZM1248.87 874.29C1248.82 873.29 1248.44 872.31 1247.71 871.51C1247.58 871.37 1247.44 871.24 1247.3 871.12L1290.29 815.13C1291.59 816.03 1293.26 816.18 1294.69 815.55L1324.71 874.42L1248.87 874.29ZM1246.9 870.8C1245.22 869.65 1242.9 869.75 1241.32 871.18C1240.92 871.54 1240.61 871.95 1240.37 872.39L1219.78 862.74L1289.3 814.2C1289.36 814.28 1289.43 814.36 1289.5 814.44C1289.62 814.57 1289.75 814.7 1289.89 814.81L1246.9 870.8ZM1219.26 862.5L1087.91 800.94C1088.29 800.23 1088.55 799.47 1088.7 798.67L1288.35 811.38C1288.35 812.21 1288.57 813.05 1289.02 813.79L1219.26 862.5ZM1088.63 795.47L1088.51 795.05C1088.42 794.73 1088.31 794.4 1088.16 794.08C1087.86 793.38 1087.44 792.74 1086.99 792.18L1086.64 791.8C1086.26 791.41 1085.85 791.05 1085.4 790.74L1085.29 790.67L1125.42 720.34C1127.03 721.14 1129.05 720.94 1130.47 719.65C1130.77 719.38 1131.01 719.09 1131.22 718.77L1203.27 760.38C1202.79 761.32 1202.66 762.4 1202.89 763.42L1088.63 795.47ZM805.07 453.92C805.34 454.52 805.71 455.04 806.17 455.46L792.42 472.49L737.72 301.06C737.8 301.03 737.87 301.02 737.95 300.99L807.06 448.17C805.02 449.28 804.13 451.78 805.08 453.93L805.07 453.92ZM806.58 455.77C807.5 456.43 808.65 456.73 809.79 456.58L864.72 699.05L792.61 473.07L806.58 455.77ZM810.28 456.48C810.52 456.42 810.76 456.35 811 456.24C811.77 455.9 812.4 455.37 812.85 454.73L916.52 520.48L867.12 699.81C866.56 699.68 865.98 699.68 865.41 699.78L810.29 456.47L810.28 456.48ZM916.98 520.77L976 558.18L1043.45 712.22L870.67 704.34C870.69 703.69 870.58 703.03 870.3 702.4C869.77 701.2 868.78 700.34 867.62 699.94L916.98 520.77ZM861.77 703.34C861.6 704.21 861.68 705.14 862.07 706.02C862.95 708.03 865.13 709.08 867.2 708.59L928.02 914.8C927.83 914.86 927.65 914.93 927.47 915.01C926.74 915.33 926.09 915.77 925.54 916.28L656.02 652.54C656.69 651.8 657.19 650.92 657.47 649.98L861.78 703.34H861.77ZM870.63 704.84L1043.68 712.73L1077.58 790.15C1075.87 790.96 1074.61 792.29 1073.85 793.88L870.4 705.76C870.51 705.46 870.59 705.15 870.64 704.84H870.63ZM1078.05 789.95L1044.24 712.76L1063.62 713.64L1079.13 789.59C1078.76 789.69 1078.39 789.8 1078.04 789.95H1078.05ZM1122.94 715.84L1064.05 713.15L1041.57 603.07C1041.79 603.02 1042 602.95 1042.21 602.85C1042.41 602.76 1042.6 602.66 1042.78 602.55L1124.53 712.82C1124.53 712.82 1124.43 712.89 1124.39 712.94C1123.52 713.72 1123.04 714.76 1122.93 715.84H1122.94ZM1064.16 713.67L1122.92 716.35C1122.93 717.41 1123.31 718.48 1124.08 719.33C1124.35 719.63 1124.66 719.88 1124.98 720.09L1084.86 790.42C1084.86 790.42 1084.76 790.36 1084.7 790.34L1084.25 790.1C1082.84 789.46 1081.23 789.23 1079.65 789.48L1064.17 713.67H1064.16ZM1204.26 759.07C1203.97 759.34 1203.72 759.64 1203.51 759.95L1131.46 718.34C1131.87 717.53 1132.02 716.62 1131.91 715.73L1196.51 703.81L1206.24 758.03C1205.52 758.2 1204.84 758.54 1204.26 759.07ZM1131.83 715.23C1131.66 714.52 1131.31 713.84 1130.79 713.27C1129.52 711.86 1127.55 711.44 1125.87 712.06L1088.6 626L1192.98 684.12L1196.42 703.31L1131.82 715.23H1131.83ZM1125.41 712.26C1125.25 712.34 1125.1 712.43 1124.95 712.53L1043.2 602.27C1043.57 601.98 1043.89 601.63 1044.15 601.25L1087.88 625.6L1125.41 712.26ZM1044.42 600.82C1044.69 600.29 1044.86 599.72 1044.91 599.12L1076.78 599.96L1087.55 624.84L1044.41 600.82H1044.42ZM1041.07 603.2L1063.53 713.14L1044.02 712.25L976.77 558.7L1036.49 596.55C1035.84 597.75 1035.71 599.2 1036.31 600.55C1037.14 602.44 1039.12 603.47 1041.07 603.2ZM1038.62 594.62C1038.35 594.73 1038.11 594.87 1037.89 595.02L937.71 465.43C938.25 464.96 938.72 464.43 939.09 463.85L1019.47 510.48L1039.07 594.46C1038.92 594.51 1038.77 594.56 1038.62 594.62ZM937.3 465.75L1037.46 595.34C1037.2 595.57 1036.98 595.84 1036.76 596.12L976.39 557.85L936.31 466.32C936.65 466.16 936.98 465.97 937.29 465.76L937.3 465.75ZM975.62 557.33L917.12 520.25L931.84 466.83C933.14 467.11 934.53 467.05 935.85 466.53L975.62 557.34V557.33ZM916.66 519.95L813.12 454.3C813.4 453.78 813.58 453.24 813.65 452.66L926.64 460.05C926.61 461.02 926.78 462 927.19 462.95C928 464.8 929.54 466.1 931.33 466.67L916.65 519.94L916.66 519.95ZM813.56 451.04C813.5 450.8 813.42 450.55 813.31 450.32C812.83 449.2 811.94 448.38 810.9 447.95L836.26 374.19L903.45 434.36L813.56 451.03V451.04ZM808.99 447.64C808.51 447.64 808.01 447.77 807.53 447.95L738.43 300.78C738.95 300.49 739.4 300.11 739.76 299.68L804.73 346.9C803.5 348.74 803.19 351.18 804.16 353.35C805.22 355.77 807.53 357.25 810 357.38L808.99 447.65V447.64ZM805.03 346.46L740.07 299.25C740.85 298.02 741.02 296.46 740.4 295.02C739.75 293.52 738.38 292.57 736.87 292.38L741.6 229.94C742.23 229.95 742.87 229.83 743.48 229.57C743.53 229.55 743.56 229.53 743.61 229.51L806.87 344.87C806.14 345.3 805.53 345.85 805.03 346.47V346.46ZM736.36 292.32C735.73 292.32 735.09 292.42 734.48 292.69L734.23 292.63L734.17 292.84C734.17 292.84 734.11 292.87 734.08 292.89L586.22 61.68C586.42 61.53 586.61 61.39 586.81 61.21L738.42 222.34C737.22 223.61 736.83 225.52 737.58 227.23C738.23 228.72 739.59 229.68 741.1 229.88L736.36 292.31V292.32ZM733.65 293.17C732.79 293.8 732.21 294.67 731.94 295.66L689.61 286.92C689.83 285.65 689.68 284.35 689.14 283.1C687.68 279.76 683.86 278.21 680.5 279.53L585.33 62.2C585.5 62.1 585.65 62.03 585.8 61.94L733.65 293.16V293.17ZM269.22 -25.97L450.83 35.09L379.63 194.44L266.38 -22.79C267.69 -23.54 268.66 -24.67 269.22 -25.97ZM451.32 35.26L538.99 64.73C538.74 65.68 538.8 66.7 539.22 67.67C539.54 68.42 540.04 69 540.62 69.46L426.19 240.61L401.46 236.3L379.94 195.01L451.32 35.26ZM676.36 284.39L426.73 240.72L541.05 69.74C542.25 70.44 543.76 70.59 545.13 69.99C545.27 69.93 545.39 69.87 545.51 69.8L679.11 280.25C677.67 281.25 676.7 282.76 676.35 284.39H676.36ZM425.86 241.1L417.07 254.25C415.24 253.14 412.93 252.89 410.83 253.81C410.76 253.84 410.71 253.88 410.66 253.89L401.77 236.87L425.86 241.09V241.1ZM426.43 241.19L676.28 284.9L420.27 260.38C420.33 259.36 420.17 258.3 419.73 257.29C419.23 256.15 418.45 255.22 417.5 254.55L426.44 241.18L426.43 241.19ZM680.02 279.75C679.86 279.82 679.71 279.9 679.56 279.99L545.95 69.54C547.37 68.51 548.07 66.77 547.74 65.05L575.9 58.02C575.99 58.29 576.08 58.57 576.19 58.85C577.65 62.18 581.48 63.73 584.84 62.42L680.02 279.75ZM547.63 64.53C547.57 64.38 547.51 64.22 547.45 64.06C547.1 63.29 546.56 62.66 545.92 62.2L556.91 44.59L576.16 53.52C575.63 54.76 575.48 56.15 575.77 57.5L547.63 64.52V64.53ZM545.49 61.93C544.31 61.29 542.86 61.17 541.53 61.75C540.94 62.01 540.44 62.38 540.03 62.82L469.5 4.72C469.63 4.54001 469.73 4.37 469.84 4.17999L556.44 44.39L545.49 61.93ZM467.68 6.17001C468.26 5.92001 468.76 5.54999 469.18 5.10999L539.71 63.21C539.48 63.53 539.29 63.88 539.15 64.24L451.54 34.78L464.29 6.25C465.35 6.66 466.57 6.66 467.7 6.16L467.68 6.17001ZM451.03 34.63L269.4 -26.44C269.48 -26.67 269.55 -26.9 269.6 -27.13L461.39 1.76999C461.35 2.45999 461.45 3.17001 461.75 3.85001C462.18 4.84 462.92 5.59 463.8 6.04001L451.03 34.62V34.63ZM265.24 -22.27L362.14 225.93C361.77 226.09 361.42 226.32 361.12 226.58L189.28 44.42L258.4 -23.72C260.18 -22.04 262.81 -21.42 265.23 -22.27H265.24ZM265.72 -22.46C265.72 -22.46 265.72 -22.46 265.74 -22.46C265.8 -22.5 265.85 -22.52 265.92 -22.56L379.37 195.03L365.63 225.8C364.69 225.45 363.64 225.4 362.64 225.73L265.73 -22.46H265.72ZM379.67 195.62L400.82 236.18L368.49 230.52C368.58 229.76 368.47 228.97 368.14 228.21C367.71 227.23 366.97 226.49 366.08 226.02L379.67 195.62ZM401.12 236.77L410.19 254.15C409.24 254.68 408.48 255.42 407.9 256.3L367.99 232.12C368.17 231.79 368.3 231.42 368.39 231.04L401.12 236.77ZM406.86 259.12C406.69 260.31 406.84 261.55 407.36 262.7C408.29 264.85 410.2 266.24 412.34 266.64L408.42 294.21L381.34 254.75L406.87 259.13L406.86 259.12ZM412.84 266.71C413.96 266.83 415.13 266.68 416.24 266.18C416.44 266.1 416.64 266 416.83 265.88L645.62 639.7L408.84 294.83L412.83 266.71H412.84ZM417.27 265.62C418.91 264.53 419.96 262.8 420.21 260.91L676.23 285.43C676.17 286.46 676.34 287.52 676.78 288.52C677.77 290.78 679.84 292.21 682.11 292.51L651.35 641.28C650.34 641.22 649.29 641.4 648.31 641.83C648.11 641.92 647.92 642.01 647.72 642.12L417.28 265.62H417.27ZM682.62 292.55C683.63 292.6 684.67 292.42 685.66 292C686.75 291.52 687.66 290.77 688.34 289.87L688.64 289.45C689.04 288.83 689.33 288.15 689.51 287.42L731.84 296.17C731.73 296.98 731.82 297.82 732.17 298.62C732.3 298.93 732.46 299.19 732.63 299.45L652.3 641.4C652.15 641.36 652.01 641.34 651.86 641.33L682.63 292.55H682.62ZM733.05 299.93C734.12 301.05 735.71 301.55 737.24 301.21L792.05 472.96L655.05 642.6C654.38 642.1 653.61 641.74 652.81 641.51L733.06 299.94L733.05 299.93ZM792.23 473.54L864.51 700.03C864.51 700.03 864.42 700.06 864.37 700.08C863.15 700.63 862.27 701.64 861.91 702.83L657.59 649.46C657.89 648.12 657.78 646.67 657.18 645.31C656.77 644.35 656.17 643.56 655.44 642.93L792.23 473.54ZM652.96 654.46C653.21 654.38 653.47 654.29 653.72 654.18C654.45 653.87 655.09 653.42 655.64 652.9L925.17 916.64C923.59 918.38 922.99 920.88 923.74 923.22L746.63 987.02C746.61 986.96 746.6 986.91 746.57 986.85C745.25 983.85 742.02 982.28 738.92 982.97L652.96 654.47V654.46ZM928.51 914.64L867.7 708.44C867.8 708.4 867.89 708.37 867.99 708.33C868.99 707.9 869.75 707.14 870.2 706.25L1073.64 794.36C1072.91 796.25 1072.88 798.41 1073.76 800.41C1074 801.02 1074.35 801.55 1074.72 802.05L935.2 916.71C934.99 916.46 934.74 916.25 934.5 916.03L934.09 915.73C932.51 914.59 930.46 914.16 928.5 914.65L928.51 914.64ZM1075.05 802.45C1075.99 803.53 1077.21 804.29 1078.53 804.73L1042.82 928.3L936.9 921.37C936.92 920.4 936.75 919.41 936.33 918.48C936.1 917.98 935.84 917.52 935.52 917.1L1075.03 802.45H1075.05ZM1042.68 928.81L1026.33 985.4L935.91 924.73C936.43 923.86 936.76 922.89 936.87 921.88L1042.69 928.81H1042.68ZM1026.63 986.22L1077.29 1020.23L1040.71 1098.73L1008.91 1047.57L1026.63 986.23V986.22ZM1120.21 937.26C1120.26 937.22 1120.31 937.18 1120.35 937.13L1120.74 936.77C1121.24 936.23 1121.59 935.58 1121.76 934.89L1227.77 967.27L1204.7 1098.26C1203.59 1098.15 1202.45 1098.31 1201.36 1098.79C1201.33 1098.8 1201.3 1098.83 1201.27 1098.84L1120.22 937.26H1120.21ZM1228.25 967.41L1263.24 978.1L1279.08 1063.79C1278.38 1063.96 1277.71 1064.31 1277.14 1064.82C1275.68 1066.14 1275.28 1068.2 1276 1069.91L1209.97 1101.73C1208.96 1099.87 1207.17 1098.66 1205.19 1098.32L1228.25 967.41ZM1276.23 1070.37C1276.39 1070.66 1276.59 1070.95 1276.82 1071.21C1277.01 1071.42 1277.22 1071.61 1277.44 1071.78L1234.38 1135.63L1208.95 1109.63C1210.75 1107.72 1211.35 1104.83 1210.23 1102.29C1210.22 1102.26 1210.2 1102.23 1210.19 1102.2L1276.22 1070.38L1276.23 1070.37ZM1208.59 1109.97L1234.09 1136.05L1229.74 1142.5L1207.85 1110.54C1208.11 1110.36 1208.36 1110.17 1208.59 1109.97ZM1277.86 1072.05C1278.96 1072.71 1280.28 1072.86 1281.49 1072.49L1347.38 1249.35C1347.19 1249.45 1347 1249.56 1346.83 1249.66L1346.39 1249.96C1346.39 1249.96 1346.3 1250.02 1346.29 1250.05L1234.74 1135.97L1277.85 1072.04L1277.86 1072.05ZM1281.96 1072.32C1282.4 1072.13 1282.83 1071.87 1283.2 1071.53C1283.98 1070.82 1284.46 1069.91 1284.62 1068.94L1386.11 1080.22L1349.92 1249.01C1349.24 1248.91 1348.53 1248.96 1347.84 1249.18L1281.95 1072.32H1281.96ZM1386.63 1080.29L1461.56 1088.62C1461.5 1089.78 1461.88 1090.97 1462.72 1091.9C1462.89 1092.09 1463.07 1092.25 1463.26 1092.4L1351.65 1249.68C1351.27 1249.44 1350.86 1249.25 1350.42 1249.13L1386.62 1080.29H1386.63ZM1463.67 1092.69C1463.99 1092.89 1464.34 1093.05 1464.69 1093.17L1432.25 1217.41L1353.28 1251.53C1352.99 1250.91 1352.57 1250.38 1352.06 1249.98L1463.67 1092.7V1092.69ZM1432.09 1218.02L1419.24 1267.21L1353.68 1254.18C1353.8 1253.46 1353.73 1252.71 1353.48 1251.98L1432.09 1218.01V1218.02ZM1419.11 1267.7L1414.81 1284.18L1353.37 1255.24C1353.45 1255.06 1353.52 1254.87 1353.57 1254.68L1419.11 1267.7ZM1559.01 1126.44L1545.65 1138.5L1470.04 1091.04C1470.12 1090.9 1470.18 1090.76 1470.24 1090.62L1558.2 1122.3C1557.79 1123.69 1558.05 1125.23 1559.01 1126.43V1126.44ZM1566.56 1052.59C1566.38 1053.87 1566.75 1055.21 1567.68 1056.24C1568.38 1057.02 1569.29 1057.49 1570.25 1057.66L1562.82 1119.1C1562.26 1119.06 1561.69 1119.13 1561.15 1119.31L1533.09 1046.06L1566.56 1052.6V1052.59ZM1532.5 1045.94L1560.67 1119.48C1560.25 1119.67 1559.85 1119.92 1559.49 1120.25C1559.25 1120.47 1559.03 1120.71 1558.85 1120.97L1466.48 1062.22L1466.64 1033.09L1532.5 1045.95V1045.94ZM1468.61 879.18L1532.29 1045.39L1466.64 1032.57L1467.48 879.39C1467.86 879.37 1468.24 879.3 1468.61 879.18ZM1466.98 879.39L1466.14 1032.47L1406.03 1020.74C1406.07 1020.56 1406.1 1020.38 1406.12 1020.2L1406.16 1019.69C1406.19 1018.7 1406.01 1017.68 1405.61 1016.72C1405.08 1015.51 1404.24 1014.54 1403.23 1013.85L1402.78 1013.57C1402.63 1013.48 1402.47 1013.41 1402.31 1013.33L1465.55 879.06C1466.01 879.25 1466.5 879.36 1466.99 879.39H1466.98ZM1462.72 875.15C1462.78 876.14 1463.16 877.12 1463.87 877.91C1464.23 878.3 1464.63 878.61 1465.08 878.85L1401.83 1013.14C1400.54 1012.65 1399.11 1012.54 1397.72 1012.9L1356.12 874.97L1462.72 875.15ZM1462.9 873.59C1462.8 873.94 1462.73 874.29 1462.71 874.65L1355.96 874.47L1342.47 829.74L1462.9 873.59ZM1355.41 874.47L1325.27 874.42L1295.13 815.32C1295.39 815.17 1295.65 814.98 1295.88 814.77C1296.38 814.32 1296.75 813.78 1297 813.19L1341.84 829.51L1355.4 874.46L1355.41 874.47ZM1316.24 744.64L1341.67 828.91L1297.19 812.71C1297.63 811.25 1297.32 809.59 1296.22 808.37C1295.7 807.8 1295.07 807.39 1294.39 807.14L1312.98 744.65C1314.03 744.9 1315.15 744.91 1316.24 744.63V744.64ZM1308.09 740.02C1308.16 740.28 1308.25 740.56 1308.37 740.83C1309.17 742.67 1310.71 743.96 1312.49 744.53L1293.9 807.02C1292.5 806.69 1290.97 807.02 1289.83 808.06C1289.53 808.33 1289.28 808.63 1289.07 808.96L1211.33 764.46C1211.76 763.6 1211.9 762.62 1211.74 761.68L1308.03 739.83L1308.09 740.02ZM1223.5 702.49C1223.95 702.08 1224.3 701.61 1224.55 701.09L1308.27 735.68C1307.82 736.82 1307.69 738.09 1307.92 739.33L1211.64 761.18C1211.46 760.54 1211.13 759.92 1210.65 759.39C1210.04 758.72 1209.28 758.27 1208.46 758.05L1219.8 703.6C1221.09 703.79 1222.46 703.43 1223.5 702.49ZM1217.11 702.16C1217.72 702.83 1218.48 703.28 1219.3 703.5L1207.96 757.96C1207.56 757.9 1207.14 757.9 1206.74 757.95L1197.01 703.73L1216.07 700.21C1216.24 700.92 1216.59 701.59 1217.11 702.17V702.16ZM1216.4 697.16C1216.01 697.96 1215.87 698.84 1215.98 699.71L1196.92 703.23L1193.55 684.45L1216.39 697.17L1216.4 697.16ZM1180.1 606.57L1218.44 695.1C1218.08 695.28 1217.74 695.5 1217.43 695.78C1217.12 696.06 1216.86 696.38 1216.64 696.72L1193.43 683.8L1179.61 606.74C1179.77 606.7 1179.93 606.64 1180.09 606.57H1180.1ZM1173.98 602.54C1173.98 603.1 1174.1 603.66 1174.35 604.19C1174.61 604.83 1175.02 605.36 1175.5 605.79L1175.92 606.1C1176.01 606.18 1176.12 606.24 1176.23 606.3L1176.7 606.53C1176.91 606.64 1177.16 606.71 1177.4 606.77L1177.91 606.86C1178.31 606.91 1178.72 606.91 1179.13 606.85L1192.88 683.49L1088.28 625.25L1077.34 599.99L1173.98 602.55V602.54ZM1174.45 600.37C1174.19 600.89 1174.03 601.44 1173.98 602.03L1077.11 599.44L1044.99 525.27L1174.45 600.36V600.37ZM1076.55 599.42L1044.84 598.57C1044.84 598.57 1044.76 596.96 1043.61 595.56C1042.8 594.58 1041.11 594.05 1039.57 594.34L1020.08 510.82L1044.26 524.85L1076.55 599.43V599.42ZM999.91 423.61L1000.36 423.48L1043.92 524.06L1019.92 510.14L999.74 423.64C999.8 423.64 999.86 423.62 999.92 423.61H999.91ZM999.23 423.72L1019.31 509.8L939.33 463.41C940.27 461.64 940.41 459.49 939.56 457.54C939.44 457.26 939.29 456.99 939.13 456.74L993.02 420.95C994.44 422.93 996.84 423.97 999.23 423.71V423.72ZM992.3 419.72C992.42 419.99 992.58 420.24 992.73 420.51L938.84 456.3C937.35 454.24 934.82 453.19 932.31 453.59L927.72 430.38L991.9 418.48C992 418.89 992.13 419.3 992.29 419.72H992.3ZM992.06 415C991.75 415.97 991.67 416.97 991.82 417.97L927.63 429.88L919.63 389.45L992.06 414.99V415ZM927.13 429.98L904.08 434.26L836.45 373.69L840.61 361.59L919.07 389.26L927.14 429.98H927.13ZM887.59 230.37L918.95 388.66L840.77 361.1L885.77 230.23C886.36 230.4 886.97 230.46 887.6 230.37H887.59ZM885.28 230.07L840.28 360.93L816.78 352.63C817.24 351.15 817.2 349.47 816.51 347.94C815.97 346.71 815.12 345.73 814.08 345.04L884.85 229.88C884.98 229.96 885.12 230.04 885.28 230.08V230.07ZM882.5 226.16C882.52 226.68 882.63 227.21 882.86 227.72C883.22 228.51 883.75 229.15 884.42 229.61L813.64 344.77C811.87 343.77 809.66 343.57 807.64 344.46C807.52 344.51 807.43 344.56 807.33 344.62L744.08 229.26C745.34 228.48 746.09 227.16 746.19 225.73L882.5 226.18V226.16ZM882.94 223.95C882.68 224.47 882.53 225.05 882.51 225.63L746.19 225.2C746.16 224.68 746.04 224.15 745.82 223.63C744.86 221.43 742.36 220.39 740.14 221.23L695.6 119.55L882.94 223.96V223.95ZM739.65 221.44C739.34 221.59 739.06 221.78 738.79 222L587.17 60.87C587.54 60.5 587.87 60.08 588.13 59.63L694.84 119.11L739.65 221.43V221.44ZM620.4 -50.89L694.51 118.33L588.4 59.18C589.28 57.45 589.4 55.36 588.56 53.42C587.79 51.67 586.38 50.43 584.72 49.8L617.69 -50.78C618.56 -50.55 619.5 -50.57 620.41 -50.9L620.4 -50.89ZM617.19 -50.93L584.23 49.64C582.77 49.23 581.16 49.3 579.66 49.96C579.33 50.09 579.03 50.26 578.73 50.46L565.26 31.21L616.68 -51.17C616.84 -51.08 617.01 -50.99 617.19 -50.93ZM614.34 -55.12C614.34 -54.51 614.45 -53.89 614.71 -53.29C615.06 -52.53 615.59 -51.88 616.24 -51.44L564.93 30.76L503.43 -57.18C504.94 -58.31 505.89 -60.04 506.08 -61.88L614.33 -55.12H614.34ZM502.08 -56.37C502.42 -56.53 502.73 -56.7 503.03 -56.88L564.65 31.24L556.71 43.95L470.07 3.70999C470.48 2.64999 470.49 1.42001 470 0.25C469.6 -0.630005 468.96 -1.34 468.17 -1.79999L496.5 -56.45C498.21 -55.66 500.22 -55.55 502.08 -56.37ZM494.02 -66.67C492.57 -64.79 492.15 -62.18 493.18 -59.85C493.79 -58.47 494.82 -57.39 496.03 -56.69L467.7 -2.04999C466.59 -2.56 465.27 -2.59 464.06 -2.07001C463.77 -1.95001 463.49 -1.79001 463.24 -1.60001L239.17 -279.17C239.27 -279.25 239.35 -279.33 239.43 -279.43L494.02 -66.67ZM238.78 -278.86L462.86 -1.26999C462.78 -1.19998 462.7 -1.10999 462.63 -1.06L345.23 -101.21C346.18 -102.47 346.45 -104.19 345.77 -105.74C344.77 -108.02 342.12 -109.04 339.84 -108.05C339.76 -108.02 339.66 -107.97 339.57 -107.92L238.1 -278.46C238.34 -278.58 238.56 -278.71 238.78 -278.87V-278.86ZM237.62 -278.25L339.12 -107.64C337.77 -106.73 337.02 -105.15 337.16 -103.55L254.1 -115.34L236.88 -278.06C237.13 -278.1 237.36 -278.15 237.61 -278.24L237.62 -278.25ZM234.66 -278.26C235.22 -278.09 235.78 -277.99 236.37 -278.01L253.58 -115.43L171.29 -127.12L234.66 -278.26ZM9.53019 -149.55L170.55 -126.69L151.62 -81.55L9.2902 -148.75C9.3902 -149.01 9.48019 -149.28 9.53019 -149.55ZM8.39005 -147.35C8.66005 -147.63 8.89022 -147.95 9.06022 -148.29L151.41 -81.07L126.64 -21.99L8.39005 -147.36V-147.35ZM151.89 -80.84L256.82 -31.28C256.12 -29.64 256.07 -27.71 256.85 -25.94C257.15 -25.25 257.56 -24.62 258.04 -24.09L188.92 44.02L127.03 -21.58L151.89 -80.84ZM38.6701 189.19L126.82 -21.05L188.55 44.4L40.4501 190.36C39.9201 189.88 39.3101 189.48 38.6601 189.18L38.6701 189.19ZM42.5102 196.18C42.6702 194.99 42.5102 193.77 42.0102 192.58C41.7102 191.89 41.2902 191.28 40.8102 190.75L188.91 44.77L360.73 226.93C359.53 228.2 359.14 230.11 359.88 231.81C360.56 233.37 362.03 234.35 363.61 234.49L363.11 251.11L42.5002 196.17L42.5102 196.18ZM364.15 234.5C364.7 234.49 365.27 234.37 365.82 234.13C365.99 234.06 366.18 233.95 366.34 233.86L380.19 254.04L363.64 251.2L364.15 234.5ZM363.63 251.71L380.6 254.63L408.29 294.97L350.17 703.81L363.63 251.71ZM353.9 706.65C353.28 705.26 352.05 704.33 350.67 704.04L408.75 295.59L646.99 642.6C644.97 644.09 643.96 646.59 644.36 649.08L354.13 707.33C354.08 707.09 354 706.88 353.91 706.66L353.9 706.65ZM354.22 707.83L644.45 649.59C644.54 649.97 644.67 650.34 644.83 650.7C645.46 652.15 646.54 653.26 647.83 653.96L589.82 773.7L354.18 709.39C354.29 708.88 354.3 708.37 354.23 707.84L354.22 707.83ZM353.57 710.87C353.77 710.56 353.92 710.23 354.03 709.89L589.58 774.17L551.3 853.18L353.56 710.88L353.57 710.87ZM590.09 774.31L657.55 792.71C657.36 793.59 657.43 794.55 657.82 795.44C657.97 795.79 658.17 796.1 658.39 796.38L574.27 869.69L551.73 853.47L590.09 774.3V774.31ZM525.79 911.95C525.29 911.4 524.7 910.96 524.05 910.61L551.49 853.96L573.86 870.05L525.78 911.95H525.79ZM674.89 967.79L527.35 918.43C527.78 916.97 527.71 915.35 527.06 913.85C526.81 913.29 526.49 912.77 526.12 912.33L574.3 870.35L672.1 941.37L677.69 945.34L680.29 969.56L674.89 967.79ZM678.24 945.73L734.76 985.83C734.48 986.24 734.23 986.71 734.07 987.17L680.82 969.73L678.24 945.73ZM696.08 1094.21L695.56 1094.14C695.11 1094.1 694.65 1094.12 694.19 1094.18L680.85 970.03L733.89 987.67C733.47 989.14 733.52 990.75 734.19 992.25C734.88 993.85 736.13 995.03 737.61 995.69L697.3 1094.53C696.9 1094.39 696.5 1094.28 696.07 1094.21H696.08ZM700.26 1096.64C699.58 1095.81 698.74 1095.17 697.79 1094.74L738.08 995.9C739.62 996.46 741.39 996.45 743 995.78L766.63 1045.98L700.26 1096.64ZM767.07 1045.64L743.49 995.53C746.4 994.04 747.81 990.62 746.81 987.52L923.91 923.7C923.93 923.77 923.94 923.83 923.98 923.89C924.2 924.39 924.47 924.84 924.78 925.26L767.07 1045.64ZM915.31 1360.63L767.29 1046.11L925.1 925.65C926.28 926.99 927.95 927.79 929.69 927.91L916.84 1360.31C916.33 1360.31 915.8 1360.43 915.3 1360.62L915.31 1360.63ZM917.37 1360.33L930.22 927.93C931.11 927.93 932 927.74 932.86 927.36C933.06 927.27 933.25 927.18 933.43 927.07L1008.35 1047.63L917.96 1360.42C917.78 1360.37 917.57 1360.35 917.37 1360.33ZM918.65 1360.63C918.58 1360.6 918.54 1360.59 918.48 1360.57L1008.72 1048.22L1040.45 1099.28L918.65 1360.64V1360.63ZM1143.35 1263.88L1041.03 1099.25L1077.72 1020.52L1198.31 1101.42C1197.19 1103.24 1196.95 1105.56 1197.88 1107.67C1198.58 1109.28 1199.83 1110.46 1201.31 1111.12L1146.8 1263.51C1145.66 1263.18 1144.42 1263.29 1143.35 1263.88ZM1147.27 1263.68L1201.77 1111.31C1203.34 1111.87 1205.12 1111.87 1206.76 1111.15C1206.99 1111.05 1207.21 1110.93 1207.42 1110.8L1229.44 1142.94L1147.83 1263.95C1147.65 1263.84 1147.46 1263.75 1147.27 1263.67V1263.68ZM1150 1267.28C1149.89 1266.39 1149.52 1265.53 1148.87 1264.82C1148.68 1264.61 1148.47 1264.42 1148.25 1264.25L1229.75 1143.4L1307.07 1256.27L1150 1267.29V1267.28ZM1307.65 1256.22L1230.05 1142.95L1234.45 1136.42L1345.93 1250.43C1345.13 1251.3 1344.72 1252.44 1344.76 1253.62L1307.66 1256.22H1307.65ZM1388.28 1373.92L1307.98 1256.7L1344.8 1254.12C1344.86 1254.51 1344.96 1254.89 1345.13 1255.27C1346.03 1257.33 1348.27 1258.36 1350.37 1257.81L1388.96 1373.58C1388.73 1373.67 1388.5 1373.78 1388.28 1373.91V1373.92ZM1391.52 1373.36C1390.83 1373.22 1390.12 1373.24 1389.44 1373.43L1350.85 1257.66C1350.92 1257.63 1350.98 1257.61 1351.05 1257.58C1351.98 1257.18 1352.69 1256.5 1353.15 1255.69L1414.68 1284.68L1391.52 1373.36ZM1415.27 1284.4L1419.6 1267.8L1607.48 1305.13L1781.19 1455.96C1781.04 1456.16 1780.9 1456.36 1780.79 1456.58L1415.26 1284.39L1415.27 1284.4Z" fill="url(#paint0_linear_1_20)"></path>
<path d="M1391.37 2106.01C1393.55 2104.79 1394.32 2102.03 1393.1 2099.85C1392.22 2098.29 1390.56 2097.46 1388.89 2097.56L1342.13 1696.32L1433.48 1702.61C1433.47 1703.38 1433.65 1704.16 1434.06 1704.88C1435.28 1707.06 1438.04 1707.83 1440.22 1706.6C1442.4 1705.38 1443.17 1702.62 1441.95 1700.44C1440.73 1698.26 1437.97 1697.49 1435.79 1698.71C1435.69 1698.77 1435.59 1698.83 1435.49 1698.9L1349.78 1585.2L1410.38 1439.55C1411.56 1439.97 1412.91 1439.89 1414.1 1439.23C1416.28 1438.01 1417.05 1435.25 1415.83 1433.07C1414.61 1430.89 1411.85 1430.12 1409.67 1431.34C1409.51 1431.43 1409.35 1431.54 1409.21 1431.64L1285.96 1282.46L1572.17 1250.3C1572.33 1251.25 1572.79 1252.16 1573.58 1252.87C1575.42 1254.54 1578.26 1254.41 1579.93 1252.58C1581.61 1250.73 1581.46 1247.88 1579.62 1246.21C1577.86 1244.63 1575.24 1244.67 1573.54 1246.25L1322.65 1005.81L1391.73 959.1C1391.98 959.44 1392.27 959.76 1392.59 960.06C1395.37 962.57 1399.64 962.35 1402.13 959.61C1404.65 956.83 1404.43 952.57 1401.68 950.07C1398.9 947.57 1394.65 947.77 1392.15 950.53C1391.82 950.9 1391.54 951.29 1391.3 951.71L1277.64 899.41L1278.16 738.03C1279.91 737.97 1281.64 737.23 1282.91 735.82C1285.41 733.06 1285.21 728.8 1282.45 726.29C1279.68 723.78 1275.42 723.99 1272.92 726.75C1271.6 728.2 1271.04 730.07 1271.2 731.88L1208.65 739.87L1136.75 507.01C1137.39 506.77 1137.99 506.37 1138.5 505.82C1140.18 503.98 1140.03 501.14 1138.19 499.46C1136.36 497.79 1133.52 497.93 1131.84 499.77C1131.44 500.22 1131.15 500.72 1130.94 501.24L697.89 369.9L747.98 48.41C750.07 48.65 752.22 47.93 753.75 46.25C756.25 43.49 756.05 39.22 753.3 36.72C750.54 34.22 746.27 34.43 743.77 37.18C742.54 38.54 741.97 40.25 742.03 41.95L514.43 58.55L433.19 -93.7C433.53 -93.91 433.87 -94.18 434.17 -94.51C435.84 -96.35 435.71 -99.2 433.86 -100.87C432.01 -102.53 429.17 -102.39 427.52 -100.56C427.42 -100.45 427.32 -100.34 427.24 -100.22L426.96 -99.8C425.9 -98 426.21 -95.65 427.81 -94.19C428.4 -93.68 429.06 -93.33 429.76 -93.15L400.11 66.88L236.51 78.82C236.37 77.8 235.88 76.82 235.07 76.07C233.23 74.4 230.37 74.54 228.73 76.38C227.05 78.22 227.18 81.07 229.02 82.73C230.27 83.85 231.94 84.16 233.44 83.68L353.98 392.79C353.14 393.16 352.36 393.7 351.68 394.43C349.17 397.19 349.38 401.46 352.15 403.96C352.9 404.65 353.76 405.13 354.67 405.4L326.58 510.18C325.06 509.87 323.44 510.34 322.35 511.56C320.66 513.4 320.8 516.24 322.65 517.91C324.42 519.53 327.13 519.45 328.81 517.79L466.13 642.41L505.54 853.92C504.71 854.13 503.91 854.58 503.3 855.26C501.62 857.09 501.76 859.95 503.59 861.61C505.44 863.28 508.29 863.15 509.94 861.3C510.12 861.12 510.25 860.93 510.37 860.73L650.71 941.03L651.87 1018.12C650.16 1018.22 648.47 1018.95 647.23 1020.33C644.71 1023.09 644.93 1027.35 647.68 1029.86C649.77 1031.75 652.67 1032.08 655.06 1030.97L655.52 1030.73C656.15 1030.38 656.72 1029.94 657.2 1029.39C657.29 1029.3 657.37 1029.2 657.45 1029.1L739.39 1102.86L769.46 1250.17C769.22 1250.23 769 1250.31 768.78 1250.41L768.32 1250.65C767.94 1250.87 767.59 1251.16 767.27 1251.51C766.94 1251.87 766.69 1252.27 766.5 1252.7L766.32 1253.18C765.81 1254.8 766.26 1256.63 767.58 1257.84C767.77 1258.02 767.96 1258.15 768.17 1258.28L768.62 1258.54C770.28 1259.36 772.34 1259.09 773.71 1257.77L845.41 1322.32C844.29 1323.72 844.06 1325.71 844.99 1327.37C845.83 1328.86 847.39 1329.69 848.98 1329.67L855.1 1420.06C854.11 1420.18 853.15 1420.52 852.29 1421.06L851.85 1421.35C851.52 1421.6 851.21 1421.88 850.92 1422.22C849.98 1423.23 849.43 1424.47 849.23 1425.74L849.19 1426.26C849.08 1427.52 849.35 1428.81 849.96 1429.96L850.23 1430.41C850.56 1430.89 850.93 1431.34 851.36 1431.75C851.95 1432.28 852.6 1432.67 853.28 1432.97L853.76 1433.16C854.15 1433.29 854.54 1433.38 854.94 1433.44L855.47 1433.49C857.46 1433.63 859.47 1432.89 860.92 1431.29C861.03 1431.15 861.15 1431.02 861.25 1430.88L933.36 1482.06L936.57 1610.56C935.93 1610.61 935.29 1610.79 934.7 1611.12C932.52 1612.34 931.75 1615.1 932.98 1617.28C934.2 1619.46 936.96 1620.23 939.14 1619C939.34 1618.89 939.52 1618.76 939.7 1618.62L940.08 1618.29C940.14 1618.24 940.19 1618.18 940.25 1618.13L1077.75 1731.64L1073.24 1765.76C1072.38 1765.69 1071.49 1765.87 1070.68 1766.33C1070.48 1766.44 1070.29 1766.58 1070.11 1766.71L1069.73 1767.04C1068.3 1768.44 1067.93 1770.66 1068.95 1772.48C1070.17 1774.66 1072.93 1775.43 1075.11 1774.21C1076.22 1773.59 1076.96 1772.57 1077.26 1771.43L1137.86 1783.96C1137.72 1784.92 1137.87 1785.93 1138.39 1786.84C1139.49 1788.79 1141.81 1789.61 1143.85 1788.88L1192.95 1905.69C1192.87 1905.73 1192.79 1905.76 1192.71 1905.81C1190.53 1907.03 1189.76 1909.79 1190.99 1911.97C1192.21 1914.15 1194.97 1914.92 1197.15 1913.69C1197.45 1913.52 1197.72 1913.32 1197.96 1913.1L1385.82 2099.07C1384.58 2100.47 1384.29 2102.56 1385.26 2104.28C1386.48 2106.46 1389.24 2107.23 1391.42 2106L1391.37 2106.01ZM1198.81 1911.97L1286.38 1955.05C1285.85 1956.3 1285.88 1957.76 1286.6 1959.03C1287.82 1961.21 1290.58 1961.98 1292.76 1960.76C1292.8 1960.74 1292.83 1960.71 1292.87 1960.69L1386.41 2098.48C1386.31 2098.56 1386.21 2098.63 1386.12 2098.72L1198.26 1912.75C1198.47 1912.51 1198.66 1912.25 1198.81 1911.97ZM1299.9 1886.1L1387.2 2098C1387.11 2098.04 1387.02 2098.08 1386.93 2098.13C1386.89 2098.15 1386.86 2098.18 1386.82 2098.2L1293.28 1960.41C1295.05 1959.07 1295.6 1956.59 1294.48 1954.6C1293.8 1953.38 1292.64 1952.61 1291.37 1952.37L1299.91 1886.09L1299.9 1886.1ZM1290.87 1952.31C1290.49 1952.28 1290.11 1952.31 1289.74 1952.37L1238.23 1737.59C1238.38 1737.55 1238.52 1737.5 1238.66 1737.45L1299.51 1885.16L1290.86 1952.31H1290.87ZM1235.38 1737.72C1236.15 1737.87 1236.95 1737.87 1237.74 1737.72L1289.24 1952.5C1288.93 1952.59 1288.62 1952.72 1288.32 1952.89C1287.57 1953.31 1286.99 1953.92 1286.6 1954.61L1199.03 1911.53C1199.56 1910.28 1199.53 1908.82 1198.81 1907.55C1198.21 1906.48 1197.23 1905.75 1196.14 1905.43L1235.37 1737.72H1235.38ZM1161.91 1773.89L1193.58 1905.43C1193.51 1905.45 1193.44 1905.48 1193.37 1905.5L1144.27 1788.69C1144.35 1788.65 1144.43 1788.62 1144.51 1788.57C1146.61 1787.39 1147.4 1784.78 1146.35 1782.64L1161.92 1773.89H1161.91ZM1231.28 1734.89C1232.13 1736.27 1233.43 1737.2 1234.89 1737.61L1195.66 1905.31C1195.14 1905.22 1194.6 1905.22 1194.07 1905.31L1162.37 1773.63L1231.28 1734.88V1734.89ZM1241.94 1728.61C1241.64 1728.08 1241.28 1727.62 1240.86 1727.21L1272.91 1691.55L1324 1695.07L1299.65 1884.15L1239.13 1737.26C1239.28 1737.19 1239.43 1737.12 1239.58 1737.04C1242.56 1735.36 1243.62 1731.59 1241.94 1728.61ZM1234.27 1433.94L1106.97 1305.68C1107.07 1305.6 1107.16 1305.51 1107.26 1305.43L1107.31 1305.45L1107.46 1305.23C1108.19 1304.42 1108.56 1303.42 1108.62 1302.41L1198.51 1292.3L1236.81 1432.46C1235.88 1432.75 1235.02 1433.24 1234.28 1433.92L1234.27 1433.94ZM1156.03 1126.04L1246.14 1235.11L1182.65 1232.38L1153.91 1127.16C1154.66 1126.92 1155.38 1126.54 1156.04 1126.03L1156.03 1126.04ZM1272.18 958.07L1120.01 828.59C1120.22 828.31 1120.39 828.01 1120.53 827.71L1254.77 889.48L1274.91 956.26C1273.89 956.62 1272.96 957.22 1272.18 958.08V958.07ZM1120.71 827.23C1120.73 827.16 1120.76 827.1 1120.77 827.03L1120.86 826.52C1121.01 825.61 1120.86 824.65 1120.42 823.82L1216.6 767.49L1252.64 882.44L1254.57 888.83L1120.71 827.23ZM1271.86 958.45C1271.78 958.55 1271.72 958.63 1271.65 958.71L987.66 772.57C987.78 772.37 987.89 772.16 987.98 771.96L1112.19 824.36C1111.59 826.02 1112.02 827.94 1113.41 829.2C1115.22 830.84 1118 830.73 1119.68 828.97L1271.87 958.44L1271.86 958.45ZM1113.09 822.84C1112.81 823.17 1112.56 823.52 1112.39 823.88L988.17 771.47C988.53 770.51 988.66 769.5 988.59 768.5L1120.46 751.67L1116.42 821.38C1115.21 821.38 1113.97 821.87 1113.09 822.85V822.84ZM679.57 367.64L694.58 387.61L690.52 413.7C689.85 413.62 689.18 413.64 688.52 413.77L678.31 368.23C678.75 368.11 679.17 367.91 679.57 367.65V367.64ZM460.51 180.04L460.06 180.33C459.73 180.59 459.39 180.88 459.08 181.22C458.66 181.68 458.34 182.18 458.06 182.71L385.32 149.37L400.51 67.39L449.49 63.82L463.05 179.09C462.16 179.24 461.3 179.56 460.51 180.04ZM457.85 183.19C457.11 184.95 457.17 186.95 457.99 188.66L371.52 233.98C371.29 233.61 371.02 233.27 370.69 232.96C370.45 232.74 370.2 232.56 369.91 232.4L385.22 149.9L457.85 183.19ZM458.22 189.13C458.57 189.72 459.01 190.27 459.55 190.76C460.53 191.65 461.71 192.2 462.92 192.41L429.22 383.38C428.52 383.28 427.8 383.33 427.12 383.56L369.57 240.37C370.1 240.13 370.57 239.78 370.99 239.32C372.23 237.95 372.48 236.03 371.76 234.44L458.22 189.13ZM438.91 509.91L425.08 491.2L439.37 487.8L441.7 508.83C440.7 508.98 439.75 509.35 438.92 509.92L438.91 509.91ZM655.56 827.71L741.43 855.5C741.35 855.8 741.3 856.1 741.3 856.41L663.08 856.95L652.13 831.48C652.9 831.11 653.62 830.59 654.24 829.92C654.84 829.26 655.28 828.51 655.57 827.71H655.56ZM651.66 831.68L662.53 856.96L649.96 857.05L649.6 832.12C650.3 832.09 650.99 831.93 651.66 831.68ZM708.93 972.41C708.65 972.72 708.41 973.04 708.22 973.37L687.69 961.62L698.89 941.49L711.44 970.68C710.51 971.05 709.64 971.63 708.94 972.41H708.93ZM699.19 940.93L743.82 860.69C744.02 860.77 744.2 860.85 744.39 860.91L715.41 970.36C714.37 970.13 713.32 970.14 712.29 970.4L711.91 970.51L699.19 940.93ZM915.31 1336.79C917.49 1335.57 918.26 1332.81 917.03 1330.63C916.72 1330.09 916.32 1329.63 915.86 1329.27L982.66 1231.14C983.32 1231.49 984.01 1231.73 984.72 1231.88L933.18 1425.14C932.67 1425.04 932.15 1425.02 931.63 1425.09L914.21 1337.22C914.58 1337.12 914.95 1336.98 915.3 1336.79H915.31ZM1142.3 1686.09C1143.03 1685.68 1143.59 1685.1 1143.98 1684.43L1230.93 1729.04C1230.16 1730.71 1230.14 1732.7 1231.04 1734.44L1162.25 1773.12L1141.39 1686.47C1141.7 1686.37 1142.01 1686.25 1142.3 1686.08V1686.09ZM1233.51 1726.24C1232.49 1726.81 1231.7 1727.64 1231.16 1728.59L1144.21 1683.98C1144.39 1683.58 1144.51 1683.15 1144.56 1682.71L1272.27 1691.51L1240.48 1726.88C1238.56 1725.3 1235.8 1724.96 1233.5 1726.25L1233.51 1726.24ZM1141.94 1780.13C1141.78 1780.14 1141.61 1780.16 1141.45 1780.19L1115.26 1674.22L1135.72 1680.97C1135.42 1682.07 1135.54 1683.29 1136.14 1684.36C1136.94 1685.79 1138.4 1686.6 1139.93 1686.66L1141.94 1780.13ZM1115.12 1673.65L1097.71 1603.21C1098.04 1603.1 1098.35 1602.96 1098.66 1602.8L1137.78 1678.27C1136.88 1678.8 1136.23 1679.6 1135.87 1680.5L1115.11 1673.65H1115.12ZM1114.55 1673.46L1087.09 1664.4L1095.13 1603.57C1095.83 1603.61 1096.54 1603.53 1097.22 1603.35L1114.54 1673.46H1114.55ZM1102.16 1597.85L1156.75 1604.05L1140.79 1677.68C1139.94 1677.54 1139.05 1677.65 1138.23 1678.02L1099.1 1602.54C1099.6 1602.22 1100.07 1601.84 1100.49 1601.38C1101.41 1600.36 1101.97 1599.12 1102.16 1597.86V1597.85ZM1102.23 1597.34C1102.37 1595.38 1101.66 1593.38 1100.13 1591.95L1176.95 1502.93C1177.42 1503.29 1177.96 1503.55 1178.52 1503.7L1156.87 1603.54L1102.23 1597.34ZM1099.75 1591.62C1098.63 1590.7 1097.29 1590.2 1095.94 1590.11L1099.69 1455.17L1175.64 1497.36C1175.01 1498.65 1175 1500.22 1175.75 1501.57C1175.97 1501.97 1176.25 1502.31 1176.56 1502.61L1099.75 1591.62ZM1095.43 1590.09C1094.89 1590.1 1094.38 1590.16 1093.85 1590.29L1093.35 1590.43C1093.35 1590.43 1093.31 1590.45 1093.29 1590.45L1009.66 1407.68C1009.66 1407.68 1009.73 1407.65 1009.77 1407.63C1010.45 1407.25 1010.99 1406.72 1011.38 1406.1L1099.18 1454.87L1095.42 1590.08L1095.43 1590.09ZM992.17 1229.48C992.38 1229.25 992.58 1229.02 992.73 1228.78L1099.94 1300.54C1099.78 1300.96 1099.67 1301.41 1099.63 1301.87L1099.61 1302.4C1099.66 1303.26 1099.93 1304.1 1100.44 1304.82L1004.6 1375.73L988.12 1231.85C988.18 1231.84 988.23 1231.83 988.29 1231.82L988.79 1231.66C990.06 1231.25 991.22 1230.54 992.16 1229.48H992.17ZM1100.76 1305.22C1100.82 1305.29 1100.89 1305.35 1100.96 1305.42L1010.5 1400.26C1009.61 1399.5 1008.46 1399.12 1007.31 1399.19L1004.69 1376.31L1100.77 1305.22H1100.76ZM993.03 1228.36C993.71 1227.26 994.1 1226.03 994.19 1224.79L1122.57 1230.31L1104.71 1297.77C1103.29 1297.58 1101.82 1298.07 1100.78 1299.2C1100.52 1299.47 1100.34 1299.76 1100.16 1300.06L993.02 1228.35L993.03 1228.36ZM1123.1 1230.33L1182.25 1232.89L1198.36 1291.82L1108.6 1301.92C1108.53 1300.81 1108.03 1299.71 1107.15 1298.9C1106.58 1298.39 1105.92 1298.05 1105.23 1297.89L1123.11 1230.34L1123.1 1230.33ZM1103.3 1306.65L1100.22 1417.44L1012.05 1404.12C1012.13 1403.23 1011.96 1402.31 1011.49 1401.48C1011.31 1401.16 1011.09 1400.87 1010.84 1400.61L1101.32 1305.75C1101.9 1306.21 1102.58 1306.5 1103.29 1306.65H1103.3ZM1100.21 1417.94L1099.2 1454.31L1011.62 1405.66C1011.78 1405.33 1011.9 1404.97 1011.97 1404.61L1100.2 1417.94H1100.21ZM1090.14 1592.73L972.54 1509.25L982.06 1480.77L1090.9 1591.91C1090.85 1591.96 1090.79 1592 1090.73 1592.06L1090.37 1592.44C1090.29 1592.54 1090.21 1592.62 1090.13 1592.73H1090.14ZM982.24 1480.23L1006.36 1408.05C1007.28 1408.3 1008.27 1408.26 1009.2 1407.89L1092.83 1590.64C1092.29 1590.88 1091.76 1591.18 1091.28 1591.57L982.24 1480.23ZM981.85 1479.83L935.61 1432.61C936.66 1431.46 937.05 1429.82 936.61 1428.31L1003.37 1405.4C1003.44 1405.57 1003.52 1405.75 1003.61 1405.91C1004.14 1406.85 1004.95 1407.53 1005.88 1407.89L981.84 1479.82L981.85 1479.83ZM936.44 1427.84C936.37 1427.68 936.3 1427.51 936.21 1427.36C936.16 1427.27 936.1 1427.18 936.04 1427.1L1004.2 1376.67L1006.79 1399.26C1006.29 1399.34 1005.8 1399.51 1005.34 1399.77C1003.48 1400.81 1002.65 1402.97 1003.21 1404.94L936.44 1427.85V1427.84ZM935.74 1426.68C935.19 1426.01 934.46 1425.53 933.67 1425.27L985.22 1231.98C986.02 1232.1 986.83 1232.09 987.62 1231.96L1004.13 1376.08L935.74 1426.68ZM915.45 1328.99C914.56 1328.45 913.49 1328.23 912.45 1328.38L895.96 1246.83C896.33 1246.73 896.69 1246.6 897.04 1246.4C898.71 1245.46 899.55 1243.62 899.3 1241.84L978.75 1226.21L978.78 1226.34C978.93 1226.86 979.14 1227.36 979.39 1227.85L979.64 1228.31C980.03 1228.92 980.5 1229.52 981.07 1230.03C981.32 1230.27 981.6 1230.48 981.88 1230.67L982.24 1230.91L915.46 1329L915.45 1328.99ZM742.71 853.35L625.22 740.95C625.27 740.89 625.31 740.82 625.36 740.76L770.43 847.23L749.91 854.84C749.66 854.27 749.29 853.75 748.8 853.31C747.06 851.73 744.41 851.78 742.71 853.35ZM770.93 847.59L962.16 987.94L749.83 858.62C750.34 857.59 750.42 856.4 750.09 855.32L770.94 847.59H770.93ZM962.64 988.82C962.37 989.33 962.18 989.88 962.12 990.45L776.39 980.14L747.09 860.93C747.84 860.71 748.54 860.28 749.11 859.66C749.28 859.47 749.43 859.26 749.56 859.05L962.63 988.82H962.64ZM962.08 990.97C962.1 992.2 962.59 993.41 963.56 994.3C964.06 994.77 964.65 995.08 965.28 995.27L917.71 1161.56L793.19 1048.55L776.53 980.69L962.09 990.98L962.08 990.97ZM981.67 775.84C982.65 775.87 983.64 775.68 984.56 775.28L1148.69 1114.79C1148.03 1115.14 1147.4 1115.62 1146.87 1116.21C1146.74 1116.35 1146.61 1116.51 1146.49 1116.67L970.4 993.33C971.53 991.53 971.23 989.13 969.6 987.65C968.89 987.01 968.04 986.63 967.16 986.52L981.67 775.85V775.84ZM966.72 995.45L985.43 1216.38C983.68 1216.59 982.02 1217.37 980.71 1218.73L918.13 1161.93L965.78 995.38C966.09 995.44 966.41 995.46 966.73 995.45H966.72ZM979.68 1220.03L912.63 1181.13L917.97 1162.47L980.37 1219.11C980.11 1219.39 979.9 1219.71 979.68 1220.03ZM892.6 1238.52C892.55 1238.55 892.5 1238.59 892.45 1238.62L813.97 1126C814.13 1125.86 814.29 1125.72 814.44 1125.55C814.6 1125.38 814.73 1125.21 814.85 1125.01L912.03 1181.39L895.82 1238.06C894.77 1237.82 893.62 1237.95 892.61 1238.52H892.6ZM979.41 1220.47C978.67 1221.89 978.37 1223.48 978.53 1225.03L978.61 1225.54C978.61 1225.61 978.63 1225.66 978.64 1225.72L899.2 1241.35C899.1 1240.97 898.96 1240.61 898.76 1240.25C898.2 1239.25 897.31 1238.55 896.3 1238.2L912.48 1181.65L979.41 1220.48V1220.47ZM909.26 1330.46L860.97 1303.97L892.85 1246.53C893.66 1246.92 894.57 1247.06 895.47 1246.93L911.96 1328.48C911.59 1328.58 911.23 1328.71 910.88 1328.91C910.19 1329.3 909.65 1329.83 909.26 1330.46ZM860.52 1303.72L843.43 1294.34L821.59 1176.88L891.29 1239.62C890.17 1241.02 889.94 1243.01 890.87 1244.67C891.25 1245.35 891.78 1245.89 892.4 1246.28L860.52 1303.72ZM821.44 1176.07L812.29 1126.86C812.73 1126.74 813.16 1126.55 813.56 1126.28L892.03 1238.9C891.89 1239.01 891.76 1239.13 891.63 1239.25L821.44 1176.07ZM820.83 1175.52L800.68 1157.38L810.03 1126.9C810.61 1127.04 811.21 1127.07 811.8 1126.97L820.82 1175.51L820.83 1175.52ZM814.12 1119.2C813.03 1118.21 811.62 1117.86 810.27 1118.1L793.42 1049.43L917.55 1162.09L912.18 1180.86L815.13 1124.55C816.01 1122.79 815.66 1120.59 814.13 1119.2H814.12ZM807.48 1119.88L734.12 1074.55L715.53 983.5C716.2 983.33 716.86 983.06 717.47 982.69L808.39 1118.94C808.17 1119.1 807.96 1119.29 807.77 1119.5C807.66 1119.62 807.57 1119.74 807.47 1119.87L807.48 1119.88ZM718.73 981.66L792.73 1048.81L809.78 1118.22C809.45 1118.34 809.12 1118.46 808.82 1118.63L717.89 982.4C718.19 982.18 718.47 981.92 718.73 981.65V981.66ZM719.1 981.28C720.01 980.2 720.51 978.9 720.66 977.58L775.99 980.65L792.5 1047.91L719.1 981.28ZM720.68 977.05C720.71 975.18 719.97 973.3 718.47 971.94C717.7 971.25 716.82 970.77 715.9 970.49L744.89 861.03C745.45 861.15 746.03 861.15 746.61 861.05L775.86 980.11L720.69 977.05H720.68ZM698.93 940.33L663.3 857.47L741.29 856.92C741.37 858.05 741.86 859.15 742.77 859.96C742.96 860.14 743.16 860.29 743.38 860.42L698.94 940.31L698.93 940.33ZM655.72 827.21C656.38 824.83 655.72 822.17 653.76 820.39C652.01 818.78 649.6 818.3 647.46 818.88L623.4 742.25C623.93 742.05 624.43 741.74 624.87 741.34L742.36 853.73C742.04 854.12 741.76 854.56 741.6 855.01L655.71 827.21H655.72ZM644.85 820.27L555.66 723.56C555.66 723.56 555.72 723.5 555.76 723.46C556.2 722.97 556.52 722.4 556.71 721.79L617.4 737.2C617.11 738.69 617.57 740.29 618.78 741.38C619.95 742.42 621.49 742.76 622.9 742.41L646.96 819.03C646.21 819.3 645.49 819.71 644.85 820.26V820.27ZM556.83 721.29C557.12 719.8 556.64 718.2 555.44 717.11C554.06 715.85 552.12 715.62 550.53 716.35L446.09 521.31C446.32 521.18 446.52 521.05 446.72 520.91L618.77 734.72C618.77 734.72 618.72 734.76 618.69 734.79H618.47L618.45 735.03C618 735.53 617.69 736.1 617.5 736.7L556.81 721.3L556.83 721.29ZM447.12 520.57C447.25 520.46 447.37 520.33 447.51 520.2L623.2 679.65C620.88 682.41 621.14 686.53 623.83 688.98C624.84 689.9 626.03 690.45 627.29 690.65L622.09 733.56C621.06 733.5 620.05 733.77 619.18 734.39L447.12 520.58V520.57ZM468.56 190.8L638.39 367.36L464.66 384.08L464.64 192.48C466.05 192.36 467.44 191.8 468.56 190.8ZM638.83 367.83L671.12 401.38L667.32 426.19L468.63 480.13C468.38 479.43 467.99 478.77 467.38 478.23C466.6 477.52 465.64 477.14 464.67 477.08V384.59L638.83 367.82V367.83ZM624.32 678.59L467.4 484.9C467.5 484.8 467.6 484.71 467.7 484.6C468.71 483.49 469.04 482.02 468.76 480.65L667.25 426.76L629.12 677.29C627.46 677.1 625.72 677.54 624.32 678.59ZM671.56 401.87L684.86 415.72C684.86 415.72 684.78 415.81 684.73 415.86C683.19 417.56 682.69 419.83 683.16 421.91L667.89 426.05L671.56 401.87ZM683.31 422.4C683.65 423.51 684.28 424.55 685.2 425.39C686.01 426.13 686.96 426.62 687.95 426.89L629.63 677.37L667.79 426.62L683.31 422.4ZM447.87 519.82C450.18 517.06 449.93 512.93 447.24 510.49C447.01 510.3 446.78 510.12 446.54 509.95L462.17 485.5C463.69 486.36 465.56 486.25 466.99 485.23L623.91 678.92C623.78 679.03 623.66 679.15 623.54 679.28L447.85 519.83L447.87 519.82ZM446.11 509.66C444.92 508.96 443.56 508.66 442.21 508.76L439.87 487.67L460.06 482.86C460.29 483.62 460.72 484.33 461.33 484.9C461.47 485.01 461.59 485.11 461.72 485.22L446.1 509.66H446.11ZM439.82 487.15L429.3 392.25C429.52 392.21 429.71 392.17 429.92 392.1L462.53 477.47C461.98 477.72 461.47 478.07 461.03 478.55C460.05 479.62 459.71 481.03 459.94 482.36L439.82 487.15ZM433.05 387.65L464.15 384.66V477.09C463.77 477.11 463.38 477.18 463 477.29L430.39 391.93C430.93 391.68 431.45 391.32 431.87 390.85C432.7 389.94 433.09 388.79 433.04 387.65H433.05ZM433 387.13C432.85 386.15 432.38 385.21 431.57 384.49C431.02 383.99 430.38 383.66 429.71 383.49L463.41 192.48C463.65 192.5 463.89 192.51 464.13 192.51L464.15 384.13L432.99 387.13H433ZM470.21 182.95L556.82 139.14L674.74 360.06C674.4 360.26 674.07 360.51 673.8 360.82L469.4 189.89C470.97 187.86 471.22 185.18 470.2 182.95H470.21ZM673.46 361.22C672.83 362.06 672.54 363.08 672.57 364.08L639.03 367.31L468.92 190.45C468.98 190.4 469.02 190.36 469.07 190.31V190.29L673.45 361.22H673.46ZM672.64 364.58C672.8 365.57 673.26 366.51 674.06 367.23C674.67 367.79 675.39 368.14 676.14 368.3L671.21 400.75L639.5 367.78L672.65 364.58H672.64ZM676.66 368.36C677.05 368.4 677.44 368.39 677.81 368.33L688.02 413.86C687 414.13 686.06 414.61 685.25 415.35L671.66 401.22L676.66 368.37V368.36ZM695.01 388.18L723.79 426.42L696.41 421.36C696.71 419.21 696 416.96 694.26 415.39C693.33 414.53 692.2 414 691.02 413.78L695.01 388.18ZM724.25 427.04L975.71 761.35L694.26 425.39C694.43 425.25 694.59 425.09 694.73 424.93C695.55 424.03 696.07 422.98 696.31 421.88L724.24 427.05L724.25 427.04ZM977.33 764.09C977.16 764.25 977.01 764.4 976.87 764.55C976.15 765.35 975.65 766.28 975.38 767.26L634.98 685.31C635.42 683.06 634.72 680.64 632.89 678.99C632.08 678.26 631.13 677.76 630.14 677.49L688.46 427C690.34 427.36 692.3 426.92 693.86 425.71L977.32 764.09H977.33ZM975.26 767.77C975.22 767.92 975.2 768.06 975.18 768.21L625.45 735.41C625.26 735.17 625.06 734.93 624.81 734.71C624.16 734.13 623.39 733.77 622.59 733.62L627.78 690.71C628.53 690.77 629.26 690.71 629.98 690.54L630.48 690.39C631.55 690.04 632.55 689.41 633.35 688.53C634.06 687.73 634.56 686.8 634.84 685.82L975.25 767.77H975.26ZM975.13 768.72C975.09 769.55 975.19 770.4 975.45 771.19L771 847.01L625.66 740.34C626.48 738.99 626.51 737.33 625.79 735.96L975.13 768.71V768.72ZM975.64 771.69C976 772.58 976.57 773.4 977.34 774.09C978.44 775.09 979.77 775.65 981.14 775.8L966.63 986.48C965.39 986.45 964.15 986.96 963.24 987.94C963.21 987.98 963.18 988.02 963.15 988.05L771.48 847.38L975.62 771.68L975.64 771.69ZM1271.36 959.14C1269.73 961.85 1270.18 965.42 1272.61 967.62C1272.65 967.67 1272.7 967.7 1272.75 967.73L1155.85 1115.29C1153.87 1113.83 1151.31 1113.61 1149.16 1114.55L985.03 775.04C985.7 774.69 986.33 774.22 986.86 773.63C987.05 773.43 987.21 773.22 987.37 773L1271.37 959.14H1271.36ZM1145.44 1122.72L1145.6 1123.2C1145.72 1123.5 1145.85 1123.8 1146.02 1124.08L992.89 1219.8C992.53 1219.29 992.14 1218.78 991.64 1218.36C990.03 1216.89 987.97 1216.22 985.95 1216.32L967.25 995.41C968.24 995.27 969.2 994.79 969.93 993.98C970 993.9 970.06 993.82 970.13 993.74L1146.21 1117.07C1145.12 1118.77 1144.87 1120.84 1145.45 1122.71L1145.44 1122.72ZM1146.29 1124.53C1146.59 1124.96 1146.94 1125.36 1147.34 1125.74C1148.09 1126.43 1148.98 1126.9 1149.9 1127.2L1122.72 1229.81L994.21 1224.29C994.21 1222.89 993.88 1221.5 993.16 1220.26L1146.28 1124.54L1146.29 1124.53ZM1150.4 1127.31C1151.39 1127.54 1152.42 1127.53 1153.4 1127.31L1182.1 1232.35L1123.25 1229.82L1150.39 1127.31H1150.4ZM1246.58 1235.65L1284.95 1282.09L1198.89 1291.76L1182.79 1232.91L1246.58 1235.65ZM1233.9 1434.31C1233.9 1434.31 1233.85 1434.35 1233.82 1434.38C1233.02 1435.26 1232.5 1436.29 1232.25 1437.38L1100.73 1417.52L1103.81 1306.71C1104.52 1306.77 1105.25 1306.64 1105.92 1306.34L1106.39 1306.09C1106.45 1306.07 1106.5 1306.04 1106.56 1306L1233.9 1434.31ZM1232.16 1437.87C1231.86 1439.85 1232.44 1441.94 1233.87 1443.49L1182.67 1495.95C1181.27 1494.72 1179.19 1494.44 1177.48 1495.41C1176.81 1495.79 1176.27 1496.31 1175.89 1496.92L1099.71 1454.61L1100.73 1418.03L1232.17 1437.88L1232.16 1437.87ZM1234.23 1443.85C1234.23 1443.85 1234.27 1443.9 1234.3 1443.92C1236.35 1445.79 1239.28 1446.15 1241.67 1445.05L1258.22 1477.43L1183.98 1497.9C1183.89 1497.64 1183.78 1497.38 1183.64 1497.13C1183.47 1496.82 1183.26 1496.55 1183.04 1496.3L1234.24 1443.85H1234.23ZM1242.9 1444.28L1266.22 1475.21L1258.72 1477.28L1242.12 1444.8C1242.39 1444.64 1242.65 1444.47 1242.9 1444.28ZM1258.45 1477.88L1331.05 1619.96C1331.05 1619.96 1330.99 1620.01 1330.94 1620.03L1330.51 1620.35C1330.36 1620.47 1330.2 1620.62 1330.04 1620.77L1183.38 1501.97C1184.11 1500.94 1184.39 1499.64 1184.12 1498.38L1258.46 1477.88H1258.45ZM1329.72 1621.16C1329.29 1621.75 1329.02 1622.4 1328.9 1623.08L1157.38 1603.61L1179.02 1503.82C1179.99 1503.97 1181.01 1503.82 1181.92 1503.3C1182.36 1503.05 1182.75 1502.73 1183.07 1502.37L1329.73 1621.17L1329.72 1621.16ZM1328.84 1623.58C1328.82 1624.03 1328.86 1624.48 1328.97 1624.92L1144.33 1680.6C1144.25 1680.37 1144.15 1680.15 1144.03 1679.93C1143.41 1678.84 1142.41 1678.1 1141.29 1677.79L1157.27 1604.11L1328.85 1623.59L1328.84 1623.58ZM1329.12 1625.4C1329.34 1626.01 1329.7 1626.57 1330.2 1627.05L1272.7 1691.03L1144.6 1682.2C1144.6 1681.83 1144.56 1681.45 1144.47 1681.08L1329.11 1625.4H1329.12ZM1330.58 1627.38C1331.19 1627.86 1331.88 1628.15 1332.6 1628.27L1324.06 1694.57L1273.34 1691.08L1330.58 1627.39V1627.38ZM1333.1 1628.33C1333.3 1628.34 1333.5 1628.33 1333.69 1628.32L1341.55 1695.78L1324.56 1694.61L1333.1 1628.34V1628.33ZM1142.44 1780.12L1140.43 1686.65C1140.58 1686.64 1140.74 1686.62 1140.89 1686.59L1161.78 1773.38L1146.09 1782.2C1145.27 1780.91 1143.88 1780.17 1142.44 1780.12ZM1078.16 1732.02L1138.65 1781.95C1138.31 1782.41 1138.07 1782.92 1137.92 1783.47L1077.32 1770.94C1077.46 1769.98 1077.31 1768.97 1076.79 1768.06C1076.11 1766.85 1074.96 1766.08 1073.69 1765.84L1078.16 1732.03V1732.02ZM1087.03 1664.91L1114.7 1674.04L1140.96 1780.32C1140.66 1780.41 1140.36 1780.54 1140.07 1780.7C1139.65 1780.94 1139.28 1781.24 1138.97 1781.57L1078.24 1731.44L1087.03 1664.91ZM941.08 1616.75L1086.55 1664.75L1077.78 1731.06L940.52 1617.75C940.75 1617.44 940.94 1617.1 941.08 1616.75ZM941.39 1614.8L1088.81 1597.63C1088.83 1597.81 1088.85 1597.98 1088.89 1598.15L1089.01 1598.66C1089.35 1599.83 1089.99 1600.94 1090.97 1601.83C1091.75 1602.52 1092.66 1603.02 1093.61 1603.3L1094.11 1603.43C1094.29 1603.47 1094.47 1603.49 1094.65 1603.52L1086.62 1664.24L941.25 1616.27C941.38 1615.79 941.43 1615.3 941.4 1614.8H941.39ZM972.37 1509.77L1089.86 1593.15C1089.08 1594.36 1088.72 1595.75 1088.78 1597.13L941.34 1614.3C941.25 1613.81 941.09 1613.32 940.83 1612.86C940.31 1611.93 939.5 1611.26 938.58 1610.89L972.37 1509.78V1509.77ZM933.84 1482.43L971.94 1509.47L938.1 1610.71C937.75 1610.61 937.4 1610.56 937.04 1610.55L933.84 1482.43ZM933.82 1481.77L932.63 1434.07C933.26 1434.02 933.89 1433.84 934.48 1433.51C934.76 1433.35 935.01 1433.17 935.24 1432.97L981.66 1480.37L972.11 1508.95L933.82 1481.77ZM862.59 1427.37L927.75 1429.66C927.76 1430.38 927.95 1431.11 928.33 1431.78C929.13 1433.21 930.6 1434.03 932.13 1434.08L933.31 1481.4L861.53 1430.45C862.15 1429.51 862.49 1428.44 862.59 1427.37ZM859.58 1421.15L910.97 1336.84C911.81 1337.29 912.78 1337.47 913.73 1337.33L931.15 1425.2C930.78 1425.3 930.41 1425.44 930.06 1425.63C928.71 1426.39 927.91 1427.73 927.77 1429.16L862.62 1426.87C862.65 1425 861.91 1423.14 860.43 1421.79C860.21 1421.59 859.97 1421.41 859.75 1421.27L859.58 1421.15ZM853.36 1325.96L908.59 1332.56C908.54 1333.4 908.71 1334.27 909.16 1335.06C909.51 1335.68 909.99 1336.19 910.54 1336.56L859.16 1420.86C858.05 1420.24 856.81 1419.97 855.59 1420.03L849.48 1329.65C850.05 1329.58 850.61 1329.4 851.14 1329.1C852.37 1328.41 853.15 1327.23 853.38 1325.94L853.36 1325.96ZM851.32 1321.35L860.72 1304.41L909.02 1330.9C908.84 1331.27 908.72 1331.66 908.64 1332.06L853.41 1325.46C853.46 1324.62 853.29 1323.75 852.84 1322.96C852.46 1322.28 851.93 1321.74 851.31 1321.35H851.32ZM843.55 1294.99L860.28 1304.17L850.88 1321.11C850.1 1320.73 849.21 1320.58 848.33 1320.69L843.55 1294.98V1294.99ZM774.34 1257.02L842.98 1294.67L847.83 1320.78C847.44 1320.88 847.05 1321.02 846.69 1321.23C846.33 1321.43 846.01 1321.69 845.72 1321.97L774.02 1257.42C774.13 1257.29 774.24 1257.16 774.33 1257.02H774.34ZM800.52 1157.91L820.98 1176.33L842.86 1294.03L774.59 1256.58C774.78 1256.21 774.91 1255.82 774.99 1255.43L775.06 1254.92C775.09 1254.67 775.1 1254.42 775.06 1254.18L775 1253.66C774.97 1253.53 774.95 1253.42 774.91 1253.3L774.75 1252.81C774.5 1252.22 774.13 1251.66 773.6 1251.21C773.18 1250.81 772.68 1250.52 772.16 1250.34L800.52 1157.92V1157.91ZM740.01 1103.45L800.08 1157.52L771.67 1250.17C771.09 1250.03 770.52 1250.01 769.94 1250.09L740 1103.45H740.01ZM739.84 1102.62L734.25 1075.23L807.21 1120.31C806.45 1121.69 806.41 1123.45 807.08 1124.53C808.04 1126.07 809.54 1126.66 809.54 1126.66L800.24 1156.99L739.84 1102.62ZM658.09 1028.17L733.66 1074.86L739.21 1102.04L657.74 1028.71L658.01 1028.32C658.04 1028.27 658.07 1028.22 658.09 1028.16V1028.17ZM657.69 1020.96L708.78 981.28C708.96 981.52 709.17 981.74 709.4 981.94C710.98 983.38 713.06 983.92 715.04 983.59L733.53 1074.18L658.33 1027.72C659.34 1025.53 659.12 1022.93 657.7 1020.95L657.69 1020.96ZM655.7 1019.12L687.43 962.08L707.97 973.82C706.79 976.07 706.97 978.8 708.46 980.87L657.37 1020.55C657.16 1020.31 656.97 1020.09 656.76 1019.89C656.42 1019.6 656.06 1019.35 655.71 1019.13L655.7 1019.12ZM651.21 941.36L686.98 961.82L655.24 1018.87C654.34 1018.41 653.36 1018.17 652.35 1018.15L651.22 941.36H651.21ZM651.2 940.75L649.96 857.57L662.75 857.48L698.62 940.89L687.22 961.38L651.19 940.76L651.2 940.75ZM511.07 858.53L649.46 857.57L650.68 940.46L510.62 860.31C510.9 859.75 511.05 859.15 511.07 858.53ZM511.01 857.55L642.72 827.16C643.05 828.36 643.71 829.49 644.7 830.38C645.93 831.52 647.51 832.09 649.06 832.13L649.44 857.05L511.07 858.02C511.07 857.86 511.05 857.7 511.01 857.55ZM551.25 724.78C552.63 725.15 554.13 724.85 555.27 723.91L644.47 820.62C644.39 820.7 644.31 820.77 644.22 820.86C642.74 822.49 642.22 824.64 642.61 826.64L510.91 857.04C510.69 856.27 510.25 855.55 509.62 854.96C509.2 854.58 508.74 854.31 508.25 854.12L551.25 724.77V724.78ZM466.74 643L548.93 717.61C547.43 719.45 547.62 722.15 549.4 723.76C549.82 724.13 550.28 724.41 550.77 724.61L507.75 853.97C507.19 853.81 506.6 853.77 506.02 853.85L466.74 643.01V643ZM466.57 642.16L444.18 522.06C444.69 521.95 445.19 521.77 445.66 521.54L550.09 716.59C549.79 716.77 549.52 716.98 549.28 717.22L466.57 642.15V642.16ZM330.12 514.89L435.96 515.68C436.02 517.45 436.75 519.19 438.16 520.48C439.73 521.88 441.75 522.44 443.67 522.16L465.93 641.59L329.13 517.43C329.73 516.68 330.05 515.8 330.11 514.89H330.12ZM330.06 513.82L424.53 491.33L438.48 510.23C438.2 510.45 437.94 510.69 437.71 510.95C436.61 512.16 436.02 513.67 435.95 515.18L330.12 514.38C330.12 514.19 330.09 514 330.06 513.82ZM355.13 405.57C356.93 405.97 358.87 405.63 360.43 404.56L424.19 490.87L329.93 513.31C329.72 512.55 329.28 511.84 328.67 511.27C328.18 510.83 327.63 510.53 327.05 510.34L355.13 405.57ZM363.34 398.21L424.17 388.76C424.36 389.65 424.82 390.48 425.53 391.14C426.48 391.98 427.64 392.36 428.78 392.31L439.32 487.26L424.74 490.74L360.84 404.25C361.11 404.03 361.37 403.78 361.63 403.52C363 402.02 363.53 400.08 363.33 398.21H363.34ZM233.88 83.5C234 83.45 234.1 83.4 234.21 83.33L425.94 384.16C425.68 384.34 425.45 384.55 425.24 384.79C424.36 385.77 423.97 387.03 424.1 388.24L363.28 397.68C363 396.31 362.3 394.99 361.19 393.97C359.31 392.25 356.71 391.81 354.46 392.59L233.89 83.48L233.88 83.5ZM235.23 82.55L364.55 233.06C364.47 233.13 364.4 233.2 364.34 233.27C362.67 235.11 362.79 237.95 364.64 239.63C365.89 240.77 367.6 241.06 369.1 240.56L426.63 383.75C426.56 383.8 426.45 383.85 426.36 383.9L234.63 83.06C234.85 82.91 235.04 82.74 235.23 82.55ZM235.97 81.52L384.73 149.68L369.44 232.16C367.98 231.52 366.23 231.72 364.94 232.72L235.56 82.15C235.72 81.94 235.85 81.74 235.96 81.51L235.97 81.52ZM399.97 67.43L384.83 149.15L236.2 81.05C236.41 80.5 236.49 79.93 236.51 79.35L399.97 67.43ZM431.07 -93.02L449.42 63.3L400.61 66.86L430.24 -93.05C430.51 -93.01 430.8 -93.01 431.08 -93.02H431.07ZM513.84 58.61L449.94 63.27L431.57 -93.08C431.95 -93.14 432.33 -93.26 432.67 -93.42L513.83 58.61H513.84ZM514.1 59.11L556.56 138.68L469.98 182.49C469.63 181.86 469.17 181.28 468.61 180.77C467.18 179.47 465.34 178.9 463.56 179.04L450.01 63.79L514.1 59.11ZM742.58 44.56L557.04 138.44L514.66 59.07L742.03 42.49C742.11 43.2 742.29 43.9 742.58 44.56ZM697.37 369.77L681.46 364.95C681.82 363.41 681.37 361.7 680.1 360.56C678.73 359.31 676.79 359.08 675.21 359.81L557.28 138.91L742.84 45.03C743.19 45.65 743.63 46.24 744.19 46.75C745.15 47.61 746.27 48.14 747.44 48.37L697.37 369.78V369.77ZM697.28 370.29L694.7 386.88L679.99 367.32C680.13 367.2 680.29 367.06 680.41 366.91C680.82 366.46 681.11 365.96 681.3 365.45L697.29 370.29H697.28ZM1130.61 501.72L724.55 426.56L695.13 387.46L697.77 370.45L1130.61 501.72ZM1132.68 506.58L985.01 763.13C982.78 761.96 980.09 762.13 978.03 763.56L725.01 427.18L1130.68 502.26C1130.51 503.67 1131 505.13 1132.12 506.16C1132.3 506.32 1132.48 506.46 1132.69 506.58H1132.68ZM1134.61 507.29L1120.5 751.14L988.52 767.98C988.27 766.54 987.56 765.16 986.39 764.1C986.1 763.83 985.79 763.59 985.46 763.38L1133.12 506.83C1133.6 507.07 1134.09 507.22 1134.61 507.28V507.29ZM1208.1 739.96L1121.02 751.07L1135.14 507.31C1135.51 507.31 1135.86 507.27 1136.22 507.19L1208.11 739.96H1208.1ZM1208.26 740.46L1216.45 766.99L1120.16 823.38C1119.96 823.08 1119.73 822.8 1119.45 822.54C1118.73 821.89 1117.85 821.51 1116.95 821.41L1121 751.6L1208.27 740.46H1208.26ZM1216.91 766.72L1208.79 740.39L1271.23 732.42C1271.35 733.14 1271.58 733.84 1271.94 734.49L1216.91 766.72ZM1277.34 899.31L1255.21 889.13L1253.23 882.57L1217.07 767.24L1272.21 734.95C1272.51 735.44 1272.9 735.91 1273.36 736.32C1274.57 737.42 1276.09 738 1277.6 738.05L1277.38 893.62L1277.34 899.31ZM1277.33 899.86L1276.9 955.89C1276.41 955.89 1275.89 955.98 1275.41 956.12L1255.4 889.77L1277.33 899.86ZM1390.37 955.24L1283.84 961.96C1283.69 960.35 1282.97 958.79 1281.67 957.62C1280.46 956.51 1278.94 955.94 1277.42 955.87L1277.6 899.98L1391.03 952.18C1390.83 952.6 1390.66 953.02 1390.56 953.46L1390.46 953.97C1390.39 954.39 1390.37 954.82 1390.37 955.24ZM1322.26 1005.49L1282.2 967.1C1283.35 965.79 1283.93 964.12 1283.89 962.47L1390.42 955.77C1390.53 956.8 1390.87 957.81 1391.44 958.72L1322.27 1005.49H1322.26ZM1157.45 1116.94C1157.16 1116.51 1156.81 1116.11 1156.41 1115.74C1156.36 1115.69 1156.31 1115.65 1156.25 1115.61L1273.17 968.07C1275.8 970.01 1279.48 969.76 1281.82 967.48L1321.81 1005.8L1157.45 1116.94ZM1572.36 1248.02L1158.39 1122.44C1158.83 1120.74 1158.6 1118.91 1157.71 1117.36L1322.17 1006.15L1573.15 1246.66C1572.8 1247.08 1572.52 1247.54 1572.36 1248.02ZM1572.11 1249.11L1246.82 1235.14L1156.42 1125.71C1156.58 1125.57 1156.73 1125.42 1156.87 1125.26C1157.51 1124.57 1157.96 1123.78 1158.25 1122.94L1572.22 1248.52C1572.18 1248.71 1572.13 1248.92 1572.12 1249.11H1572.11ZM1285.54 1282.02L1247.25 1235.68L1572.08 1249.65C1572.08 1249.71 1572.08 1249.76 1572.08 1249.83L1285.54 1282.02ZM1407.35 1435.15L1245.53 1438.27C1245.38 1436.66 1244.65 1435.09 1243.35 1433.92C1241.65 1432.37 1239.38 1431.86 1237.29 1432.34L1199.02 1292.26L1285.33 1282.56L1408.79 1431.99C1407.89 1432.82 1407.39 1433.96 1407.34 1435.14L1407.35 1435.15ZM1407.44 1436.27L1266.73 1475.07L1243.28 1443.96C1243.47 1443.8 1243.65 1443.63 1243.82 1443.44C1245.02 1442.11 1245.59 1440.43 1245.56 1438.76L1407.36 1435.64C1407.38 1435.85 1407.4 1436.05 1407.45 1436.26L1407.44 1436.27ZM1349.41 1584.75L1267.06 1475.5L1407.58 1436.75C1407.67 1437.01 1407.78 1437.27 1407.92 1437.52C1408.39 1438.36 1409.09 1438.99 1409.9 1439.37L1349.42 1584.74L1349.41 1584.75ZM1334.9 1619.63C1333.8 1619.22 1332.58 1619.25 1331.51 1619.73L1258.95 1477.74L1266.54 1475.65L1349.19 1585.29L1334.9 1619.63ZM1434.54 1699.76L1337.09 1626.29C1338.28 1624.47 1338.02 1622.01 1336.35 1620.51C1336.05 1620.23 1335.71 1620.01 1335.36 1619.83L1349.54 1585.75L1435.07 1699.21C1434.87 1699.37 1434.7 1699.55 1434.54 1699.75V1699.76ZM1342.06 1695.81L1334.19 1628.25C1335.11 1628.07 1335.98 1627.61 1336.65 1626.86C1336.7 1626.81 1336.74 1626.75 1336.79 1626.7L1434.23 1700.16C1433.84 1700.75 1433.59 1701.42 1433.5 1702.11L1342.06 1695.81ZM1388.38 2097.62C1388.14 2097.66 1387.9 2097.72 1387.67 2097.8L1300.04 1885.08L1324.51 1695.1L1341.62 1696.28L1388.39 2097.62H1388.38Z" fill="url(#paint1_linear_1_20)"></path>
<defs>
<linearGradient id="paint0_linear_1_20" x1="-180.38" y1="-93.4" x2="969.27" y2="813.73" gradientUnits="userSpaceOnUse">
<stop stop-color="#181EA8"></stop>
<stop offset="0.18" stop-color="#3261C9"></stop>
<stop offset="0.39" stop-color="#50ADEF"></stop>
<stop offset="0.49" stop-color="#5CCCFF"></stop>
<stop offset="0.58" stop-color="#4CA3DE"></stop>
<stop offset="0.72" stop-color="#376FB4"></stop>
<stop offset="0.84" stop-color="#294A96"></stop>
<stop offset="0.94" stop-color="#203383"></stop>
<stop offset="1" stop-color="#1D2B7D"></stop>
</linearGradient>
<linearGradient id="paint1_linear_1_20" x1="-267" y1="16.38" x2="882.65" y2="923.5" gradientUnits="userSpaceOnUse">
<stop stop-color="#181EA8"></stop>
<stop offset="0.18" stop-color="#3261C9"></stop>
<stop offset="0.39" stop-color="#50ADEF"></stop>
<stop offset="0.49" stop-color="#5CCCFF"></stop>
<stop offset="0.58" stop-color="#4CA3DE"></stop>
<stop offset="0.72" stop-color="#376FB4"></stop>
<stop offset="0.84" stop-color="#294A96"></stop>
<stop offset="0.94" stop-color="#203383"></stop>
<stop offset="1" stop-color="#1D2B7D"></stop>
</linearGradient>
</defs>
</svg>